
<!-- Generator: visioncortex VTracer 0.6.4 -->
<svg version="1.1" xmlns="http://www.w3.org/2000/svg" viewBox="0 0 1024 1024" preserveAspectRatio="xMidYMid meet">
<path d="M0 0 C1.665 -0.002 3.33 -0.005 4.995 -0.009 C9.514 -0.018 14.034 -0.014 18.553 -0.007 C23.449 -0.003 28.345 -0.01 33.241 -0.015 C42.809 -0.024 52.378 -0.022 61.947 -0.017 C69.729 -0.012 77.511 -0.011 85.293 -0.014 C86.404 -0.014 87.515 -0.014 88.66 -0.015 C90.917 -0.015 93.174 -0.016 95.431 -0.017 C116.559 -0.022 137.686 -0.016 158.813 -0.005 C176.912 0.004 195.01 0.002 213.108 -0.007 C234.164 -0.017 255.219 -0.022 276.275 -0.016 C278.524 -0.015 280.772 -0.014 283.021 -0.014 C284.68 -0.013 284.68 -0.013 286.373 -0.013 C294.139 -0.011 301.904 -0.014 309.67 -0.019 C319.144 -0.024 328.618 -0.023 338.092 -0.012 C342.918 -0.007 347.745 -0.005 352.571 -0.011 C357.002 -0.017 361.432 -0.014 365.862 -0.003 C367.452 -0.001 369.043 -0.002 370.634 -0.007 C384.83 -0.048 399.411 0.546 413.157 4.379 C414.32 4.697 414.32 4.697 415.505 5.021 C439.436 11.906 460.974 25.87 476.657 45.254 C477.445 46.221 478.232 47.188 479.044 48.184 C493.326 66.515 503.599 90.806 503.907 114.254 C503.933 115.43 503.959 116.605 503.985 117.816 C503.625 121.589 502.544 123.997 500.657 127.254 C499.997 127.254 499.337 127.254 498.657 127.254 C498.657 127.914 498.657 128.574 498.657 129.254 C490.522 133.605 483.412 133.437 474.345 133.441 C473.146 133.454 471.948 133.466 470.714 133.479 C462.868 133.492 456.119 133.475 449.345 129.129 C444.517 123.964 443.674 118.783 442.782 112.004 C440.813 98.155 433.586 85.114 422.657 76.254 C411.738 68.406 400.849 64.028 387.382 63.426 C384.951 63.314 382.522 63.176 380.094 63.009 C363.853 61.917 347.575 62.111 331.306 62.123 C326.798 62.126 322.289 62.122 317.781 62.119 C308.974 62.115 300.168 62.116 291.362 62.119 C284.201 62.121 277.04 62.121 269.879 62.12 C268.856 62.12 267.833 62.12 266.78 62.12 C264.701 62.119 262.623 62.119 260.545 62.119 C241.104 62.116 221.663 62.119 202.222 62.125 C185.566 62.129 168.909 62.128 152.253 62.124 C132.871 62.118 113.489 62.116 94.107 62.119 C92.038 62.12 89.969 62.12 87.9 62.12 C86.373 62.12 86.373 62.12 84.816 62.121 C77.667 62.121 70.519 62.12 63.37 62.118 C54.653 62.115 45.937 62.116 37.22 62.121 C32.779 62.124 28.337 62.125 23.896 62.121 C19.821 62.118 15.746 62.12 11.672 62.125 C10.207 62.126 8.742 62.126 7.278 62.123 C-15.496 62.088 -39.029 63.396 -56.343 80.254 C-70.417 96.209 -74.813 112.568 -74.731 133.592 C-74.735 135.33 -74.74 137.068 -74.747 138.805 C-74.761 143.553 -74.757 148.301 -74.75 153.049 C-74.745 158.18 -74.758 163.311 -74.768 168.442 C-74.785 178.483 -74.786 188.524 -74.781 198.565 C-74.776 206.728 -74.778 214.892 -74.783 223.055 C-74.784 224.799 -74.784 224.799 -74.786 226.579 C-74.787 228.942 -74.789 231.305 -74.79 233.668 C-74.804 255.812 -74.798 277.956 -74.787 300.1 C-74.777 320.347 -74.79 340.594 -74.814 360.841 C-74.838 381.646 -74.848 402.451 -74.841 423.256 C-74.838 434.93 -74.84 446.604 -74.858 458.279 C-74.872 468.216 -74.873 478.153 -74.855 488.09 C-74.847 493.157 -74.845 498.224 -74.86 503.291 C-74.874 507.935 -74.869 512.579 -74.85 517.223 C-74.846 518.897 -74.849 520.572 -74.859 522.246 C-74.961 539.746 -70.958 553.98 -58.78 566.898 C-40.631 584.437 -16.308 583.563 7.258 583.465 C9.598 583.463 11.939 583.462 14.28 583.461 C19.288 583.458 24.295 583.449 29.303 583.435 C36.548 583.414 43.792 583.405 51.037 583.4 C62.801 583.391 74.565 583.373 86.329 583.35 C87.031 583.349 87.732 583.347 88.455 583.346 C89.158 583.344 89.86 583.343 90.584 583.341 C100.573 583.322 110.561 583.304 120.55 583.288 C121.606 583.287 121.606 583.287 122.684 583.285 C134.423 583.267 146.163 583.253 157.902 583.241 C165.775 583.233 173.648 583.219 181.522 583.2 C186.406 583.19 191.29 583.183 196.174 583.177 C198.443 583.174 200.711 583.169 202.98 583.162 C206.07 583.152 209.159 583.149 212.248 583.147 C213.152 583.143 214.055 583.139 214.986 583.134 C215.813 583.135 216.64 583.136 217.493 583.137 C218.205 583.135 218.918 583.134 219.653 583.132 C221.76 583.26 223.63 583.68 225.657 584.254 C225.987 583.594 226.317 582.934 226.657 582.254 C226.657 582.914 226.657 583.574 226.657 584.254 C227.647 584.223 228.637 584.193 229.657 584.161 C252.663 583.468 275.652 583.171 298.669 583.227 C299.915 583.229 301.161 583.232 302.445 583.235 C314.047 583.261 325.649 583.3 337.252 583.35 C343.688 583.377 350.124 583.394 356.56 583.405 C358.973 583.411 361.385 583.421 363.797 583.435 C388.292 583.577 410.183 583.192 428.97 565.316 C437.336 556.53 441.305 546.582 442.595 534.566 C443.492 526.819 445.543 522.455 450.907 516.941 C457.63 512.816 464.383 511.783 472.157 511.941 C472.947 511.938 473.737 511.935 474.552 511.932 C482.718 512.005 490.177 512.952 496.657 518.254 C502.919 524.801 504.13 530.68 503.97 539.5 C501.583 568.164 485.075 596.553 463.411 615.094 C427.401 644.776 389.179 647.591 344.22 647.501 C339.767 647.494 335.314 647.499 330.861 647.503 C322.166 647.508 313.471 647.502 304.776 647.493 C294.61 647.482 284.444 647.482 274.278 647.483 C256.106 647.483 237.935 647.474 219.764 647.46 C202.214 647.446 184.665 647.439 167.115 647.439 C166.036 647.439 164.956 647.439 163.844 647.439 C162.228 647.439 162.228 647.439 160.579 647.44 C140.494 647.44 120.41 647.434 100.326 647.425 C93.276 647.422 86.227 647.421 79.177 647.421 C70.551 647.42 61.924 647.416 53.298 647.406 C48.915 647.402 44.532 647.399 40.149 647.4 C23.785 647.404 7.421 647.347 -8.938 646.981 C-10.403 646.949 -11.867 646.922 -13.332 646.9 C-26.881 646.68 -40.201 645.015 -52.905 640.066 C-53.696 639.765 -54.486 639.464 -55.3 639.154 C-70.986 633.006 -83.996 624.269 -96.468 612.941 C-97.025 612.438 -97.582 611.934 -98.156 611.415 C-100.847 608.909 -103.009 606.719 -104.343 603.254 C-105.003 603.254 -105.663 603.254 -106.343 603.254 C-108.157 600.958 -109.826 598.67 -111.468 596.254 C-111.959 595.534 -112.449 594.813 -112.955 594.071 C-124.91 576.137 -132.746 556.008 -133.913 534.354 C-133.954 533.619 -133.995 532.885 -134.037 532.127 C-134.453 524.072 -134.485 516.026 -134.477 507.962 C-134.478 506.29 -134.481 504.619 -134.483 502.947 C-134.49 498.405 -134.489 493.862 -134.488 489.319 C-134.488 484.4 -134.494 479.481 -134.498 474.562 C-134.507 464.946 -134.509 455.329 -134.51 445.712 C-134.51 437.891 -134.512 430.069 -134.516 422.247 C-134.524 400.032 -134.529 377.817 -134.528 355.602 C-134.528 354.407 -134.528 353.212 -134.528 351.981 C-134.528 350.186 -134.528 350.186 -134.528 348.354 C-134.528 328.959 -134.537 309.564 -134.551 290.168 C-134.566 270.215 -134.573 250.262 -134.572 230.309 C-134.571 219.122 -134.574 207.935 -134.585 196.748 C-134.594 187.225 -134.596 177.703 -134.589 168.18 C-134.586 163.329 -134.586 158.478 -134.595 153.627 C-134.603 149.173 -134.601 144.72 -134.592 140.266 C-134.591 138.668 -134.593 137.07 -134.598 135.472 C-134.647 120.556 -134.169 105.11 -129.78 90.754 C-129.524 89.893 -129.268 89.032 -129.004 88.145 C-119.716 58.361 -99.662 31.691 -72.343 16.254 C-71.783 15.933 -71.224 15.613 -70.647 15.282 C-62.729 10.814 -54.69 7.453 -45.968 4.879 C-45.18 4.64 -44.392 4.402 -43.58 4.156 C-29.443 0.255 -14.569 -0.045 0 0 Z M-67.343 11.254 C-65.343 12.254 -65.343 12.254 -65.343 12.254 Z M484.657 55.254 C486.657 56.254 486.657 56.254 486.657 56.254 Z " fill="#822BE8" transform="translate(280.3428955078125,164.74603271484375)"/>
<path d="M0 0 C1.561 -0.002 3.121 -0.004 4.682 -0.007 C8.954 -0.013 13.226 -0.013 17.498 -0.012 C22.111 -0.011 26.725 -0.017 31.339 -0.022 C40.37 -0.03 49.402 -0.033 58.433 -0.033 C65.774 -0.034 73.115 -0.036 80.456 -0.039 C101.275 -0.048 122.094 -0.052 142.913 -0.052 C144.034 -0.052 145.156 -0.052 146.312 -0.052 C147.435 -0.052 148.558 -0.052 149.715 -0.051 C167.924 -0.051 186.134 -0.061 204.343 -0.075 C223.046 -0.089 241.75 -0.096 260.453 -0.095 C270.951 -0.095 281.449 -0.098 291.947 -0.108 C300.883 -0.117 309.819 -0.12 318.754 -0.113 C323.312 -0.11 327.87 -0.109 332.428 -0.118 C336.603 -0.126 340.778 -0.125 344.952 -0.116 C346.46 -0.114 347.968 -0.116 349.476 -0.122 C360.989 -0.161 372.828 -0.067 381.8 8.114 C389.969 16.775 391.138 24.374 391.065 35.946 C391.085 37.058 391.105 38.17 391.126 39.315 C391.121 48.16 389.573 55.608 384.706 63.087 C378.584 69.117 372.177 72.659 363.628 73.134 C363.298 73.794 362.968 74.454 362.628 75.134 C356.848 75.159 351.068 75.177 345.288 75.189 C343.326 75.194 341.364 75.2 339.402 75.209 C318.479 75.3 318.479 75.3 309.628 74.134 C309.298 74.794 308.968 75.454 308.628 76.134 C308.628 75.474 308.628 74.814 308.628 74.134 C307.371 74.169 306.113 74.205 304.818 74.241 C266.995 75.262 229.209 75.091 191.378 74.696 C189.536 74.677 189.536 74.677 187.656 74.657 C172.313 74.496 156.971 74.321 141.628 74.134 C141.628 74.794 141.628 75.454 141.628 76.134 C140.968 75.804 140.308 75.474 139.628 75.134 C133.813 74.555 133.813 74.555 128.69 77.009 C124.114 83.943 125.446 94.128 125.44 102.196 C125.428 103.22 125.416 104.245 125.403 105.3 C125.105 115.949 125.105 115.949 129.503 125.134 C133.232 126.889 136.525 127.258 140.626 127.251 C141.639 127.252 142.652 127.253 143.695 127.253 C144.806 127.249 145.917 127.245 147.062 127.241 C148.244 127.24 149.426 127.239 150.644 127.239 C153.925 127.236 157.207 127.229 160.489 127.22 C164.028 127.212 167.568 127.209 171.107 127.206 C177.243 127.2 183.379 127.19 189.515 127.178 C198.402 127.161 207.288 127.152 216.175 127.144 C230.613 127.132 245.051 127.118 259.489 127.099 C260.354 127.098 261.218 127.097 262.108 127.096 C274.357 127.08 286.605 127.062 298.853 127.042 C300.145 127.04 300.145 127.04 301.463 127.038 C302.753 127.036 302.753 127.036 304.07 127.034 C318.441 127.01 332.813 126.995 347.185 126.986 C356.042 126.98 364.898 126.968 373.755 126.947 C379.834 126.933 385.913 126.927 391.992 126.926 C395.494 126.926 398.995 126.922 402.497 126.909 C440.577 126.786 440.577 126.786 450.628 135.134 C457.606 142.171 459.997 150.507 460.038 160.257 C460.021 161.65 460.021 161.65 460.003 163.071 C460.015 163.996 460.026 164.921 460.038 165.874 C459.995 176.014 457.74 184.673 450.628 192.134 C438.677 202.712 421.124 200.262 406.214 200.148 C403.165 200.125 400.117 200.112 397.069 200.1 C388.413 200.067 379.757 200.025 371.1 199.962 C365.782 199.925 360.463 199.902 355.144 199.888 C353.125 199.88 351.107 199.866 349.088 199.847 C346.272 199.821 343.456 199.813 340.64 199.809 C339.812 199.797 338.985 199.784 338.132 199.772 C333.22 199.789 329.892 200.428 325.628 203.134 C322.387 207.052 322.253 210.317 322.265 215.306 C322.264 215.987 322.264 216.669 322.263 217.372 C322.265 218.811 322.275 220.25 322.292 221.688 C322.315 223.863 322.312 226.037 322.306 228.212 C322.318 235.362 322.335 242.292 324.628 249.134 C327.706 252.178 330.017 252.51 334.267 252.518 C335.964 252.534 335.964 252.534 337.695 252.549 C338.911 252.546 340.128 252.543 341.382 252.54 C342.634 252.551 343.887 252.562 345.177 252.573 C349.862 252.613 354.547 252.627 359.232 252.639 C363.824 252.652 368.415 252.688 373.007 252.727 C374.226 252.724 375.444 252.721 376.7 252.718 C377.828 252.728 378.956 252.739 380.118 252.749 C381.609 252.752 381.609 252.752 383.13 252.755 C386.038 253.196 386.8 253.908 388.628 256.134 C389.881 256.914 391.153 257.663 392.44 258.384 C400.155 263.154 404.094 269.497 406.628 278.134 C407.133 281.988 407.146 285.752 407.065 289.634 C407.073 290.602 407.08 291.57 407.087 292.567 C406.996 302.999 404.705 311.35 397.628 319.134 C387.856 328.641 375.119 328.287 362.332 328.267 C361.237 328.27 360.143 328.272 359.015 328.274 C355.371 328.281 351.726 328.28 348.082 328.279 C345.459 328.282 342.837 328.285 340.214 328.289 C333.844 328.297 327.474 328.3 321.104 328.301 C315.923 328.301 310.742 328.303 305.562 328.306 C290.851 328.315 276.14 328.32 261.43 328.319 C260.638 328.319 259.846 328.319 259.031 328.319 C257.842 328.319 257.842 328.319 256.629 328.319 C243.782 328.318 230.935 328.328 218.089 328.342 C204.876 328.357 191.664 328.363 178.451 328.363 C171.042 328.362 163.633 328.365 156.224 328.376 C149.255 328.386 142.286 328.385 135.318 328.378 C132.765 328.377 130.213 328.38 127.66 328.386 C124.166 328.393 120.672 328.389 117.178 328.381 C115.677 328.389 115.677 328.389 114.145 328.397 C103.049 328.343 92.442 327.471 83.628 320.134 C74.085 309.582 73.83 296.875 74.464 283.374 C75.18 273.592 79.599 267.163 86.378 260.384 C94.581 254.704 103.059 253.012 112.922 253.002 C113.634 253 114.346 252.998 115.08 252.996 C117.454 252.99 119.828 252.991 122.202 252.992 C123.909 252.989 125.616 252.985 127.324 252.981 C130.994 252.973 134.664 252.968 138.334 252.965 C144.137 252.959 149.939 252.943 155.742 252.924 C157.73 252.917 159.718 252.911 161.706 252.905 C162.701 252.902 163.697 252.898 164.722 252.895 C178.228 252.853 191.734 252.82 205.24 252.808 C214.356 252.799 223.473 252.777 232.59 252.738 C237.413 252.719 242.236 252.706 247.059 252.711 C251.592 252.716 256.125 252.702 260.658 252.674 C262.322 252.667 263.986 252.667 265.649 252.674 C267.921 252.683 270.19 252.668 272.461 252.646 C274.367 252.642 274.367 252.642 276.312 252.639 C280.225 252.043 281.878 250.937 284.628 248.134 C285.881 244.374 285.81 240.841 285.831 236.923 C285.837 236.118 285.842 235.312 285.848 234.483 C285.858 232.78 285.864 231.077 285.868 229.374 C285.878 226.775 285.909 224.177 285.94 221.579 C285.947 219.923 285.952 218.267 285.956 216.61 C285.975 215.449 285.975 215.449 285.993 214.264 C285.975 209.699 285.496 206.738 282.628 203.134 C279.025 200.732 276.173 200.692 271.991 200.516 C271.235 200.478 270.478 200.441 269.698 200.402 C261.737 200.036 253.782 200 245.814 200.02 C244.194 200.02 242.574 200.02 240.955 200.02 C236.556 200.019 232.158 200.025 227.76 200.032 C222.996 200.039 218.233 200.039 213.469 200.04 C205.231 200.043 196.993 200.05 188.755 200.059 C176.832 200.071 164.91 200.077 152.987 200.081 C133.624 200.089 114.26 200.099 94.896 200.113 C93.161 200.114 93.161 200.114 91.391 200.116 C83.178 200.122 74.966 200.128 66.753 200.134 C57.361 200.141 47.969 200.148 38.577 200.154 C37.42 200.155 36.263 200.156 35.07 200.157 C15.768 200.17 -3.534 200.18 -22.837 200.187 C-34.729 200.192 -46.622 200.2 -58.514 200.212 C-66.659 200.221 -74.803 200.226 -82.948 200.228 C-87.644 200.229 -92.34 200.232 -97.036 200.239 C-101.339 200.246 -105.641 200.248 -109.944 200.247 C-111.496 200.247 -113.048 200.249 -114.601 200.253 C-141.524 200.317 -141.524 200.317 -150.122 192.696 C-160.075 181.361 -161.04 171.885 -160.372 157.134 C-159.387 146.342 -155.7 139.785 -147.63 132.677 C-141.546 128.519 -136.449 127.695 -129.257 127.755 C-128.361 127.751 -127.464 127.746 -126.541 127.741 C-123.55 127.73 -120.56 127.739 -117.569 127.749 C-115.42 127.745 -113.271 127.739 -111.122 127.733 C-106.501 127.721 -101.879 127.718 -97.257 127.723 C-89.95 127.73 -82.643 127.714 -75.336 127.695 C-58.508 127.654 -41.68 127.642 -24.851 127.631 C-9.424 127.621 6.003 127.604 21.43 127.563 C28.695 127.545 35.96 127.541 43.224 127.548 C47.741 127.549 52.258 127.539 56.775 127.525 C58.871 127.521 60.966 127.522 63.062 127.528 C65.921 127.537 68.78 127.527 71.639 127.512 C72.469 127.519 73.299 127.526 74.154 127.533 C80.005 127.475 84.338 126.423 88.628 122.134 C90.075 118.286 89.826 114.136 89.866 110.079 C89.878 108.91 89.878 108.91 89.891 107.718 C89.904 106.072 89.915 104.426 89.923 102.781 C89.935 101.103 89.955 99.425 89.985 97.747 C90.027 95.316 90.043 92.886 90.054 90.454 C90.08 89.338 90.08 89.338 90.107 88.2 C90.085 83.032 88.904 80.104 85.628 76.134 C82.689 74.664 79.734 75.012 76.514 75.036 C75.78 75.038 75.046 75.039 74.29 75.04 C72.69 75.044 71.089 75.05 69.489 75.059 C66.933 75.071 64.377 75.078 61.82 75.083 C55.451 75.096 49.081 75.12 42.712 75.144 C4.535 75.287 4.535 75.287 -8.86 74.759 C-10.158 74.712 -10.158 74.712 -11.481 74.665 C-22.741 74.118 -31.375 71.706 -39.185 63.259 C-47.858 52.748 -47.259 39.029 -46.099 26.083 C-44.766 17.997 -40.705 11.341 -34.372 6.134 C-23.52 -0.599 -12.373 -0.014 0 0 Z " fill="#374AF1" transform="translate(478.3720703125,322.8662872314453)"/>
<path d="M0 0 C3 1 3 1 3 1 Z M-363 1 C-359 2 -359 2 -359 2 Z M-358 1 C-312.682 0.931 -267.365 0.878 -222.047 0.847 C-216.691 0.843 -211.335 0.839 -205.98 0.835 C-204.914 0.834 -203.847 0.834 -202.749 0.833 C-185.508 0.82 -168.266 0.796 -151.025 0.769 C-133.321 0.74 -115.617 0.724 -97.913 0.718 C-86.998 0.714 -76.082 0.701 -65.166 0.676 C-57.671 0.66 -50.176 0.656 -42.681 0.659 C-38.363 0.661 -34.045 0.659 -29.727 0.642 C-25.762 0.628 -21.797 0.627 -17.832 0.637 C-16.409 0.639 -14.986 0.635 -13.563 0.625 C0.538 0.536 14.274 2.554 27.625 7.188 C28.501 7.486 29.377 7.784 30.28 8.091 C41.109 11.915 50.77 17.178 60 24 C60.758 24.266 61.516 24.531 62.297 24.805 C65.808 26.357 68.357 28.655 71.125 31.25 C71.973 32.043 71.973 32.043 72.839 32.852 C93.035 52.215 108.535 81.212 110.203 109.438 C110.219 110.613 110.234 111.789 110.25 113 C110.276 114.176 110.302 115.351 110.328 116.562 C109.968 120.335 108.886 122.743 107 126 C106.34 126 105.68 126 105 126 C105 126.66 105 127.32 105 128 C96.865 132.351 89.754 132.183 80.688 132.188 C79.489 132.2 78.291 132.212 77.057 132.225 C69.211 132.238 62.461 132.221 55.688 127.875 C50.86 122.71 50.017 117.529 49.125 110.75 C47.17 96.998 39.968 83.724 29 75 C25.574 72.803 22.127 70.725 18.598 68.699 C17.312 67.858 17.312 67.858 16 67 C16 66.34 16 65.68 16 65 C3.863 60.972 -7.707 59.703 -20.465 59.722 C-21.89 59.717 -23.315 59.711 -24.74 59.704 C-28.624 59.688 -32.507 59.685 -36.391 59.683 C-40.591 59.68 -44.792 59.664 -48.992 59.651 C-56.258 59.628 -63.525 59.613 -70.791 59.603 C-81.297 59.589 -91.803 59.563 -102.308 59.535 C-119.356 59.49 -136.403 59.453 -153.451 59.422 C-170.005 59.392 -186.559 59.357 -203.114 59.317 C-204.135 59.315 -205.157 59.312 -206.209 59.31 C-211.333 59.298 -216.457 59.285 -221.582 59.273 C-264.054 59.169 -306.527 59.08 -349 59 C-348.67 58.34 -348.34 57.68 -348 57 C-346.35 57 -344.7 57 -343 57 C-343.66 56.34 -344.32 55.68 -345 55 C-345.33 55 -345.66 55 -346 55 C-347.125 48.25 -347.125 48.25 -346 46 C-346.66 45.67 -347.32 45.34 -348 45 C-348.495 43.515 -348.495 43.515 -349 42 C-349.99 41.67 -350.98 41.34 -352 41 C-351.773 39.907 -351.546 38.814 -351.312 37.688 C-350.599 34.095 -350.599 34.095 -352.438 32.062 C-353.211 31.537 -353.211 31.537 -354 31 C-352.333 31 -350.667 31 -349 31 C-349.638 29.725 -350.283 28.454 -350.938 27.188 C-352 25 -352 25 -352.875 22.375 C-354.218 19.539 -355.229 19.251 -358 18 C-359 15 -359 15 -358.223 13.176 C-357.148 11.451 -356.074 9.725 -355 8 C-356.32 7.34 -357.64 6.68 -359 6 C-358.67 4.35 -358.34 2.7 -358 1 Z M-348 32 C-347.34 32.66 -346.68 33.32 -346 34 C-345.67 33.34 -345.34 32.68 -345 32 C-345.99 32 -346.98 32 -348 32 Z M-345 37 C-345.33 37.66 -345.66 38.32 -346 39 C-345.34 39 -344.68 39 -344 39 C-344.33 38.34 -344.66 37.68 -345 37 Z M-343 38 C-343.33 38.66 -343.66 39.32 -344 40 C-342.68 39.34 -341.36 38.68 -340 38 C-340.99 38 -341.98 38 -343 38 Z M-347 39 C-347 39.66 -347 40.32 -347 41 C-346.34 40.67 -345.68 40.34 -345 40 C-345.66 39.67 -346.32 39.34 -347 39 Z M-341.562 53.5 C-342.037 53.995 -342.511 54.49 -343 55 C-341.68 55.33 -340.36 55.66 -339 56 C-339 54.68 -339 53.36 -339 52 C-340.241 51.885 -340.241 51.885 -341.562 53.5 Z M-358 6 C-357.34 6.66 -356.68 7.32 -356 8 C-356.99 7.67 -357.98 7.34 -359 7 C-358.67 6.67 -358.34 6.34 -358 6 Z M-361 12 C-360.01 12.495 -360.01 12.495 -359 13 C-359 13.66 -359 14.32 -359 15 C-359.66 15 -360.32 15 -361 15 C-361 14.01 -361 13.02 -361 12 Z M-354 26 C-353.34 26 -352.68 26 -352 26 C-352.33 26.99 -352.66 27.98 -353 29 C-353.66 28.34 -354.32 27.68 -355 27 C-354.67 26.67 -354.34 26.34 -354 26 Z M-354 38 C-352 39 -352 39 -352 39 Z M91 54 C93 55 93 55 93 55 Z " fill="#1376F8" transform="translate(674,166)"/>
<path d="M0 0 C1.672 -0.002 3.344 -0.004 5.016 -0.007 C9.555 -0.014 14.094 -0.008 18.633 0 C23.549 0.007 28.465 0.002 33.381 -0.001 C42.986 -0.006 52.592 -0.001 62.197 0.008 C73.391 0.019 84.585 0.019 95.779 0.018 C115.749 0.018 135.719 0.027 155.688 0.041 C175.057 0.056 194.426 0.063 213.795 0.062 C214.989 0.062 216.184 0.062 217.415 0.062 C218.607 0.062 219.8 0.062 221.028 0.062 C243.105 0.061 265.182 0.067 287.258 0.076 C295.059 0.079 302.86 0.08 310.66 0.08 C320.16 0.081 329.66 0.086 339.159 0.095 C344.005 0.099 348.851 0.102 353.696 0.101 C358.132 0.1 362.568 0.104 367.003 0.111 C368.607 0.113 370.211 0.113 371.815 0.111 C373.997 0.109 376.18 0.113 378.362 0.119 C379.573 0.119 380.785 0.12 382.033 0.121 C385.948 0.26 389.711 0.709 393.59 1.247 C393.59 1.577 393.59 1.907 393.59 2.247 C275.45 2.577 157.31 2.907 35.59 3.247 C35.59 4.897 35.59 6.547 35.59 8.247 C37.24 8.577 38.89 8.907 40.59 9.247 C39.6 9.577 38.61 9.907 37.59 10.247 C36.784 12.353 36.784 12.353 36.402 14.81 C36.244 15.636 36.085 16.462 35.922 17.314 C35.812 17.952 35.703 18.59 35.59 19.247 C36.188 19.371 36.786 19.495 37.402 19.622 C39.59 20.247 39.59 20.247 42.59 22.247 C41.6 23.237 40.61 24.227 39.59 25.247 C40.58 24.917 41.57 24.587 42.59 24.247 C42.92 25.897 43.25 27.547 43.59 29.247 C44.58 28.752 44.58 28.752 45.59 28.247 C45.26 29.897 44.93 31.547 44.59 33.247 C43.6 33.247 42.61 33.247 41.59 33.247 C42.25 33.907 42.91 34.567 43.59 35.247 C42.93 36.897 42.27 38.547 41.59 40.247 C43.24 40.907 44.89 41.567 46.59 42.247 C46.26 43.567 45.93 44.887 45.59 46.247 C46.58 46.577 47.57 46.907 48.59 47.247 C48.384 47.825 48.177 48.402 47.965 48.997 C47.496 51.812 48.182 52.823 49.59 55.247 C49.92 56.237 50.25 57.227 50.59 58.247 C48.115 58.742 48.115 58.742 45.59 59.247 C46.667 59.249 46.667 59.249 47.765 59.25 C90.354 59.309 132.942 59.382 175.53 59.476 C180.648 59.487 185.766 59.499 190.884 59.51 C191.903 59.512 192.922 59.514 193.971 59.516 C210.451 59.552 226.93 59.577 243.41 59.598 C260.33 59.619 277.249 59.652 294.169 59.696 C304.603 59.722 315.036 59.74 325.47 59.747 C332.632 59.752 339.795 59.768 346.957 59.793 C351.085 59.807 355.212 59.816 359.339 59.812 C363.128 59.809 366.916 59.819 370.705 59.84 C372.704 59.848 374.703 59.841 376.702 59.834 C387.212 59.915 397.856 61.014 407.59 65.247 C404.054 66.481 402.001 65.946 398.465 64.872 C392.084 63.323 385.949 62.866 379.396 62.654 C378.271 62.614 377.147 62.575 375.988 62.535 C360.805 62.06 345.616 62.105 330.427 62.117 C325.923 62.119 321.419 62.115 316.916 62.113 C308.134 62.108 299.352 62.109 290.57 62.112 C283.429 62.114 276.288 62.115 269.148 62.113 C267.615 62.113 267.615 62.113 266.051 62.113 C263.975 62.113 261.898 62.112 259.821 62.112 C240.427 62.109 221.033 62.112 201.638 62.118 C185.026 62.122 168.414 62.121 151.801 62.117 C132.453 62.112 113.104 62.109 93.755 62.112 C91.69 62.113 89.625 62.113 87.56 62.113 C86.037 62.114 86.037 62.114 84.482 62.114 C77.351 62.115 70.22 62.113 63.089 62.111 C54.398 62.108 45.707 62.109 37.016 62.114 C32.589 62.117 28.162 62.118 23.734 62.115 C19.673 62.112 15.611 62.113 11.55 62.119 C10.09 62.12 8.63 62.119 7.171 62.117 C-15.59 62.081 -39.108 63.4 -56.41 80.247 C-70.496 96.215 -74.885 112.578 -74.784 133.619 C-74.787 135.36 -74.791 137.102 -74.796 138.843 C-74.807 143.6 -74.799 148.358 -74.788 153.115 C-74.779 158.256 -74.787 163.398 -74.794 168.539 C-74.803 178.598 -74.796 188.658 -74.784 198.717 C-74.771 210.435 -74.772 222.152 -74.774 233.869 C-74.778 254.774 -74.766 275.679 -74.746 296.584 C-74.727 316.867 -74.72 337.149 -74.726 357.432 C-74.732 379.528 -74.732 401.624 -74.72 423.72 C-74.719 426.075 -74.718 428.431 -74.717 430.787 C-74.716 431.946 -74.716 433.105 -74.715 434.299 C-74.711 442.466 -74.711 450.633 -74.713 458.801 C-74.715 468.751 -74.71 478.701 -74.696 488.651 C-74.688 493.727 -74.684 498.804 -74.689 503.88 C-74.693 508.527 -74.688 513.174 -74.675 517.821 C-74.672 519.502 -74.673 521.183 -74.677 522.863 C-74.682 525.15 -74.675 527.435 -74.665 529.721 C-74.663 531.625 -74.663 531.625 -74.662 533.568 C-74.463 536.481 -74.092 538.7 -73.332 541.468 C-72.467 545.014 -72.381 545.993 -73.41 549.247 C-73.896 547.729 -74.373 546.207 -74.848 544.685 C-75.248 543.414 -75.248 543.414 -75.656 542.118 C-77.173 536.342 -77.539 530.677 -77.568 524.724 C-77.573 523.999 -77.578 523.274 -77.583 522.528 C-77.599 520.117 -77.607 517.707 -77.616 515.296 C-77.625 513.561 -77.635 511.826 -77.646 510.091 C-77.672 505.394 -77.694 500.696 -77.714 495.998 C-77.735 491.084 -77.763 486.17 -77.79 481.256 C-77.839 471.956 -77.884 462.656 -77.928 453.356 C-77.977 442.766 -78.032 432.176 -78.087 421.586 C-78.201 399.806 -78.308 378.027 -78.41 356.247 C-79.4 356.577 -80.39 356.907 -81.41 357.247 C-83.762 356.649 -86.099 355.988 -88.41 355.247 C-88.41 354.257 -88.41 353.267 -88.41 352.247 C-89.73 351.917 -91.05 351.587 -92.41 351.247 C-92.41 350.257 -92.41 349.267 -92.41 348.247 C-93.07 349.237 -93.73 350.227 -94.41 351.247 C-96.06 350.587 -97.71 349.927 -99.41 349.247 C-99.74 349.577 -100.07 349.907 -100.41 350.247 C-102.91 348.872 -102.91 348.872 -105.41 347.247 C-105.41 346.587 -105.41 345.927 -105.41 345.247 C-106.153 345.433 -106.895 345.618 -107.66 345.81 C-110.36 346.239 -111.856 346.098 -114.41 345.247 C-114.41 343.927 -114.41 342.607 -114.41 341.247 C-114.964 341.464 -115.519 341.68 -116.09 341.903 C-117.177 342.321 -117.177 342.321 -118.285 342.747 C-119.364 343.165 -119.364 343.165 -120.465 343.591 C-122.41 344.247 -122.41 344.247 -124.41 344.247 C-124.74 343.917 -125.07 343.587 -125.41 343.247 C-126.4 343.247 -127.39 343.247 -128.41 343.247 C-128.74 343.907 -129.07 344.567 -129.41 345.247 C-130.07 345.247 -130.73 345.247 -131.41 345.247 C-131.48 370.118 -131.533 394.988 -131.566 419.859 C-131.581 431.408 -131.602 442.957 -131.637 454.506 C-131.667 464.579 -131.686 474.652 -131.692 484.724 C-131.696 490.052 -131.705 495.379 -131.727 500.707 C-131.748 505.734 -131.754 510.762 -131.75 515.789 C-131.75 517.622 -131.756 519.455 -131.768 521.287 C-131.855 535.725 -130.74 549.644 -125.863 563.364 C-125.41 565.247 -125.41 565.247 -126.41 568.247 C-130.9 557.285 -133.355 546.15 -133.984 534.336 C-134.025 533.602 -134.065 532.868 -134.107 532.112 C-134.52 524.06 -134.553 516.016 -134.544 507.955 C-134.546 506.284 -134.548 504.612 -134.551 502.94 C-134.557 498.398 -134.557 493.855 -134.556 489.313 C-134.555 484.394 -134.561 479.475 -134.566 474.556 C-134.574 464.939 -134.577 455.322 -134.577 445.706 C-134.578 437.884 -134.58 430.062 -134.583 422.24 C-134.592 400.025 -134.596 377.81 -134.596 355.595 C-134.596 354.4 -134.596 353.205 -134.595 351.974 C-134.595 350.179 -134.595 350.179 -134.595 348.348 C-134.595 328.952 -134.605 309.557 -134.619 290.162 C-134.633 270.208 -134.64 250.255 -134.639 230.302 C-134.639 219.115 -134.641 207.928 -134.652 196.741 C-134.661 187.218 -134.663 177.696 -134.657 168.173 C-134.653 163.322 -134.653 158.471 -134.662 153.62 C-134.67 149.167 -134.668 144.713 -134.66 140.259 C-134.658 138.661 -134.66 137.063 -134.666 135.465 C-134.715 120.549 -134.236 105.104 -129.848 90.747 C-129.592 89.886 -129.335 89.025 -129.072 88.138 C-119.783 58.355 -99.729 31.684 -72.41 16.247 C-71.851 15.927 -71.291 15.606 -70.714 15.276 C-62.797 10.807 -54.758 7.446 -46.035 4.872 C-45.247 4.634 -44.459 4.395 -43.647 4.149 C-29.487 0.241 -14.593 -0.051 0 0 Z M30.59 2.247 C34.59 3.247 34.59 3.247 34.59 3.247 Z M32.59 13.247 C32.59 14.237 32.59 15.227 32.59 16.247 C33.25 16.247 33.91 16.247 34.59 16.247 C34.26 15.257 33.93 14.267 33.59 13.247 C33.26 13.247 32.93 13.247 32.59 13.247 Z M33.59 17.247 C34.59 19.247 34.59 19.247 34.59 19.247 Z M39.59 27.247 C39.59 28.237 39.59 29.227 39.59 30.247 C40.25 29.917 40.91 29.587 41.59 29.247 C41.59 28.587 41.59 27.927 41.59 27.247 C40.93 27.247 40.27 27.247 39.59 27.247 Z M-123.41 339.247 C-123.08 340.237 -122.75 341.227 -122.41 342.247 C-122.41 341.257 -122.41 340.267 -122.41 339.247 C-122.74 339.247 -123.07 339.247 -123.41 339.247 Z M393.59 2.247 C409.79 0.919 426.485 7.835 440.59 15.247 C441.085 16.237 441.085 16.237 441.59 17.247 C437.156 15.828 432.887 14.16 428.59 12.372 C417.195 7.751 405.801 4.789 393.59 3.247 C393.59 2.917 393.59 2.587 393.59 2.247 Z M38.59 7.247 C40.59 8.247 40.59 8.247 40.59 8.247 Z M40.59 10.247 C42.59 11.247 42.59 11.247 42.59 11.247 Z M-67.41 11.247 C-65.41 12.247 -65.41 12.247 -65.41 12.247 Z M441.59 17.247 C447.268 18.667 451.122 21.641 455.59 25.247 C451.724 25.247 450.123 23.902 446.902 21.81 C445.908 21.172 444.915 20.534 443.891 19.876 C443.131 19.339 442.372 18.801 441.59 18.247 C441.59 17.917 441.59 17.587 441.59 17.247 Z M45.59 33.247 C46.58 33.577 47.57 33.907 48.59 34.247 C47.6 34.247 46.61 34.247 45.59 34.247 C45.59 33.917 45.59 33.587 45.59 33.247 Z M48.59 38.247 C48.92 38.907 49.25 39.567 49.59 40.247 C48.93 39.917 48.27 39.587 47.59 39.247 C47.92 38.917 48.25 38.587 48.59 38.247 Z M50.59 39.247 C51.58 39.577 52.57 39.907 53.59 40.247 C52.27 40.577 50.95 40.907 49.59 41.247 C49.92 40.587 50.25 39.927 50.59 39.247 Z M46.59 40.247 C47.25 40.907 47.91 41.567 48.59 42.247 C47.93 42.247 47.27 42.247 46.59 42.247 C46.59 41.587 46.59 40.927 46.59 40.247 Z M51.59 54.247 C52.25 54.247 52.91 54.247 53.59 54.247 C53.59 54.907 53.59 55.567 53.59 56.247 C52.6 55.917 51.61 55.587 50.59 55.247 C50.92 54.917 51.25 54.587 51.59 54.247 Z M407.59 66.247 C409.59 67.247 409.59 67.247 409.59 67.247 Z M-117.41 344.247 C-115.925 345.237 -115.925 345.237 -114.41 346.247 C-115.73 345.917 -117.05 345.587 -118.41 345.247 C-118.08 344.917 -117.75 344.587 -117.41 344.247 Z M-123.41 346.247 C-120.41 347.247 -120.41 347.247 -120.41 347.247 Z M-105.41 348.247 C-103.925 349.237 -103.925 349.237 -102.41 350.247 C-103.4 350.577 -104.39 350.907 -105.41 351.247 C-105.41 350.257 -105.41 349.267 -105.41 348.247 Z M-100.41 350.247 C-99.75 350.907 -99.09 351.567 -98.41 352.247 C-99.07 352.247 -99.73 352.247 -100.41 352.247 C-100.41 351.587 -100.41 350.927 -100.41 350.247 Z M-95.41 351.247 C-93.76 351.577 -92.11 351.907 -90.41 352.247 C-91.4 352.742 -91.4 352.742 -92.41 353.247 C-92.74 353.907 -93.07 354.567 -93.41 355.247 C-94.4 354.587 -95.39 353.927 -96.41 353.247 C-96.08 352.587 -95.75 351.927 -95.41 351.247 Z " fill="#3649EB" transform="translate(280.4101867675781,164.7527618408203)"/>
<path d="M0 0 C0.79 -0.003 1.58 -0.006 2.395 -0.01 C10.561 0.064 18.02 1.011 24.5 6.312 C30.762 12.86 31.973 18.738 31.812 27.559 C29.426 56.223 12.918 84.612 -8.746 103.152 C-44.756 132.834 -82.979 135.649 -127.937 135.559 C-132.39 135.553 -136.843 135.558 -141.296 135.561 C-149.991 135.566 -158.686 135.561 -167.381 135.551 C-177.547 135.541 -187.713 135.541 -197.879 135.541 C-216.051 135.542 -234.222 135.533 -252.394 135.518 C-269.943 135.504 -287.493 135.497 -305.042 135.498 C-306.661 135.498 -306.661 135.498 -308.313 135.498 C-309.929 135.498 -309.929 135.498 -311.578 135.498 C-331.663 135.499 -351.747 135.493 -371.831 135.484 C-378.881 135.481 -385.93 135.48 -392.98 135.479 C-401.606 135.479 -410.233 135.474 -418.859 135.465 C-423.242 135.46 -427.625 135.457 -432.008 135.459 C-448.372 135.462 -464.736 135.405 -481.095 135.039 C-482.56 135.008 -484.024 134.981 -485.489 134.958 C-497.187 134.769 -509.652 134.096 -520.5 129.312 C-516.753 127.952 -514.107 128.699 -510.312 129.688 C-500.733 132.166 -491.485 132.457 -481.649 132.433 C-479.739 132.434 -479.739 132.434 -477.79 132.435 C-474.275 132.438 -470.761 132.434 -467.247 132.429 C-463.45 132.424 -459.652 132.426 -455.855 132.426 C-449.282 132.427 -442.71 132.424 -436.138 132.418 C-426.635 132.41 -417.133 132.407 -407.63 132.406 C-392.212 132.404 -376.793 132.397 -361.375 132.388 C-346.4 132.379 -331.426 132.372 -316.452 132.367 C-315.528 132.367 -314.605 132.367 -313.653 132.367 C-309.019 132.365 -304.386 132.364 -299.752 132.363 C-261.335 132.352 -222.917 132.335 -184.5 132.312 C-197.7 131.982 -210.9 131.653 -224.5 131.312 C-224.5 130.322 -224.5 129.332 -224.5 128.312 C-224.83 127.322 -225.16 126.332 -225.5 125.312 C-224.84 125.312 -224.18 125.312 -223.5 125.312 C-224.16 124.653 -224.82 123.993 -225.5 123.312 C-226.985 123.808 -226.985 123.808 -228.5 124.312 C-229.16 123.322 -229.82 122.332 -230.5 121.312 C-231.16 120.982 -231.82 120.653 -232.5 120.312 C-232.17 118.993 -231.84 117.673 -231.5 116.312 C-230.51 116.312 -229.52 116.312 -228.5 116.312 C-228.17 115.653 -227.84 114.993 -227.5 114.312 C-226.84 114.312 -226.18 114.312 -225.5 114.312 C-226.076 111.927 -226.722 109.646 -227.5 107.312 C-226.015 106.817 -226.015 106.817 -224.5 106.312 C-225.16 104.993 -225.82 103.673 -226.5 102.312 C-228.48 102.312 -230.46 102.312 -232.5 102.312 C-232.625 98.937 -232.625 98.937 -232.5 95.312 C-231.84 94.653 -231.18 93.993 -230.5 93.312 C-231.16 93.312 -231.82 93.312 -232.5 93.312 C-231.887 90.351 -231.246 88.932 -229.5 86.312 C-228.18 87.303 -226.86 88.293 -225.5 89.312 C-225.17 88.653 -224.84 87.993 -224.5 87.312 C-225.16 86.982 -225.82 86.653 -226.5 86.312 C-226.83 85.322 -227.16 84.332 -227.5 83.312 C-226.995 82.903 -226.489 82.493 -225.969 82.07 C-225.319 81.531 -224.669 80.993 -224 80.438 C-223.35 79.904 -222.701 79.37 -222.031 78.82 C-221.526 78.323 -221.021 77.825 -220.5 77.312 C-220.5 76.653 -220.5 75.993 -220.5 75.312 C-219.84 75.312 -219.18 75.312 -218.5 75.312 C-218.17 75.643 -217.84 75.972 -217.5 76.312 C-217.5 75.982 -217.5 75.653 -217.5 75.312 C-211.23 74.982 -204.96 74.653 -198.5 74.312 C-199.82 73.653 -201.14 72.993 -202.5 72.312 C-184.265 71.623 -166.053 71.222 -147.805 71.285 C-146.493 71.289 -146.493 71.289 -145.155 71.293 C-137.061 71.319 -128.967 71.359 -120.874 71.408 C-116.373 71.435 -111.873 71.452 -107.373 71.463 C-105.695 71.469 -104.017 71.479 -102.339 71.493 C-79.955 71.681 -60.168 69.532 -43.188 53.375 C-34.821 44.588 -30.852 34.641 -29.562 22.625 C-28.665 14.877 -26.614 10.513 -21.25 5 C-14.527 0.874 -7.774 -0.159 0 0 Z M-229.5 89.312 C-229.17 90.303 -228.84 91.293 -228.5 92.312 C-228.5 91.322 -228.5 90.332 -228.5 89.312 C-228.83 89.312 -229.16 89.312 -229.5 89.312 Z M-226.5 91.312 C-227.49 92.962 -228.48 94.612 -229.5 96.312 C-228.51 96.643 -227.52 96.972 -226.5 97.312 C-226.17 97.972 -225.84 98.632 -225.5 99.312 C-224.822 96.412 -224.822 96.412 -224.5 93.312 C-225.16 92.653 -225.82 91.993 -226.5 91.312 Z M-223.5 91.312 C-223.83 91.972 -224.16 92.632 -224.5 93.312 C-223.84 93.312 -223.18 93.312 -222.5 93.312 C-222.83 92.653 -223.16 91.993 -223.5 91.312 Z M-230.5 97.312 C-230.17 97.972 -229.84 98.632 -229.5 99.312 C-229.17 98.653 -228.84 97.993 -228.5 97.312 C-229.16 97.312 -229.82 97.312 -230.5 97.312 Z M-225.5 114.312 C-225.83 114.972 -226.16 115.632 -226.5 116.312 C-225.84 116.312 -225.18 116.312 -224.5 116.312 C-224.83 115.653 -225.16 114.993 -225.5 114.312 Z M-227.5 117.312 C-227.5 118.303 -227.5 119.293 -227.5 120.312 C-226.51 119.982 -225.52 119.653 -224.5 119.312 C-224.5 118.653 -224.5 117.993 -224.5 117.312 C-225.49 117.312 -226.48 117.312 -227.5 117.312 Z M-183.5 131.312 C-183.17 131.972 -182.84 132.632 -182.5 133.312 C-181.18 132.982 -179.86 132.653 -178.5 132.312 C-180.15 131.982 -181.8 131.653 -183.5 131.312 Z M-229.5 85.312 C-227.5 86.312 -227.5 86.312 -227.5 86.312 Z M-228.5 95.312 C-226.5 96.312 -226.5 96.312 -226.5 96.312 Z M-229.5 102.312 C-228.51 102.972 -227.52 103.633 -226.5 104.312 C-226.83 105.303 -227.16 106.293 -227.5 107.312 C-228.16 107.312 -228.82 107.312 -229.5 107.312 C-229.83 107.972 -230.16 108.633 -230.5 109.312 C-231.16 108.982 -231.82 108.653 -232.5 108.312 C-232.5 106.663 -232.5 105.013 -232.5 103.312 C-231.51 102.982 -230.52 102.653 -229.5 102.312 Z M-231.5 109.312 C-231.5 110.303 -231.5 111.293 -231.5 112.312 C-232.16 111.653 -232.82 110.992 -233.5 110.312 C-232.84 109.982 -232.18 109.653 -231.5 109.312 Z M-230.5 111.312 C-229.84 111.312 -229.18 111.312 -228.5 111.312 C-228.17 112.303 -227.84 113.293 -227.5 114.312 C-228.985 115.303 -228.985 115.303 -230.5 116.312 C-231.16 115.653 -231.82 114.992 -232.5 114.312 C-231.84 113.653 -231.18 112.992 -230.5 112.312 C-230.5 111.982 -230.5 111.653 -230.5 111.312 Z M-232.5 122.312 C-231.84 122.972 -231.18 123.633 -230.5 124.312 C-231.16 124.312 -231.82 124.312 -232.5 124.312 C-232.5 123.653 -232.5 122.992 -232.5 122.312 Z " fill="#5436EB" transform="translate(752.5,676.6875)"/>
<path d="M0 0 C27.877 -0.047 55.754 -0.082 83.631 -0.104 C96.575 -0.114 109.519 -0.128 122.463 -0.151 C133.746 -0.171 145.028 -0.184 156.311 -0.188 C162.285 -0.191 168.258 -0.197 174.231 -0.211 C179.856 -0.225 185.481 -0.229 191.106 -0.226 C193.168 -0.227 195.23 -0.231 197.291 -0.238 C200.113 -0.248 202.934 -0.246 205.755 -0.241 C206.566 -0.246 207.376 -0.252 208.211 -0.258 C217.606 -0.209 227.047 1.483 234.172 7.98 C242.472 16.781 243.478 24.379 243.312 36.125 C243.316 37.279 243.319 38.432 243.322 39.621 C243.287 45.232 242.982 49.696 241 55 C240.34 55 239.68 55 239 55 C238.753 55.722 238.505 56.444 238.25 57.188 C235.1 64.275 229.737 67.588 223 71 C219.103 72.341 215.109 72.136 211.04 72.12 C210.232 72.121 209.424 72.122 208.592 72.123 C205.882 72.124 203.172 72.119 200.462 72.114 C198.52 72.113 196.579 72.113 194.638 72.114 C189.363 72.114 184.089 72.108 178.814 72.101 C173.304 72.095 167.793 72.095 162.282 72.093 C151.845 72.09 141.409 72.082 130.972 72.072 C119.09 72.061 107.209 72.055 95.327 72.05 C70.885 72.04 46.442 72.022 22 72 C22 71.67 22 71.34 22 71 C27.94 71 33.88 71 40 71 C40.33 70.34 40.66 69.68 41 69 C42.65 69 44.3 69 46 69 C46 67.35 46 65.7 46 64 C45.01 63.505 45.01 63.505 44 63 C44.66 62.01 45.32 61.02 46 60 C44.865 56.595 44.447 56.399 41.438 54.812 C40.303 54.214 39.169 53.616 38 53 C38 52.01 38 51.02 38 50 C38.66 50 39.32 50 40 50 C40 49.34 40 48.68 40 48 C39.01 47.67 38.02 47.34 37 47 C37 43.667 37 40.333 37 37 C36.01 37 35.02 37 34 37 C34 35.68 34 34.36 34 33 C33.34 32.34 32.68 31.68 32 31 C32 30.34 32 29.68 32 29 C31.34 29 30.68 29 30 29 C30 28.34 30 27.68 30 27 C29.34 27 28.68 27 28 27 C28 25.35 28 23.7 28 22 C27.34 21.67 26.68 21.34 26 21 C26 19.667 26 18.333 26 17 C26.66 17 27.32 17 28 17 C27.506 16.674 27.013 16.348 26.504 16.012 C25.863 15.575 25.223 15.138 24.562 14.688 C23.924 14.258 23.286 13.829 22.629 13.387 C21 12 21 12 20 9 C18 7.791 18 7.791 16 7 C16.66 6.34 17.32 5.68 18 5 C14.034 4.277 10.192 3.835 6.164 3.684 C5.101 3.642 4.037 3.6 2.941 3.557 C1.847 3.517 0.753 3.478 -0.375 3.438 C-2.051 3.373 -2.051 3.373 -3.762 3.307 C-6.508 3.201 -9.254 3.099 -12 3 C-12 2.67 -12 2.34 -12 2 C-8.04 2 -4.08 2 0 2 C0 1.34 0 0.68 0 0 Z M26 13 C27 15 27 15 27 15 Z M15 8 C15.66 8 16.32 8 17 8 C16.67 8.66 16.34 9.32 16 10 C15.67 9.34 15.34 8.68 15 8 Z M24 20 C26 21 26 21 26 21 Z M32 33 C34 34 34 34 34 34 Z M35 37 C37 38 37 38 37 38 Z M40 56 C40.99 56.33 41.98 56.66 43 57 C42.34 57.66 41.68 58.32 41 59 C40.67 58.01 40.34 57.02 40 56 Z " fill="#1474F6" transform="translate(626,323)"/>
<path d="M0 0 C0.717 -0.002 1.433 -0.005 2.172 -0.007 C4.573 -0.013 6.974 -0.012 9.376 -0.012 C11.097 -0.015 12.819 -0.018 14.54 -0.022 C19.215 -0.031 23.891 -0.033 28.566 -0.034 C32.466 -0.034 36.365 -0.038 40.265 -0.042 C49.459 -0.05 58.654 -0.052 67.849 -0.052 C77.346 -0.051 86.844 -0.062 96.342 -0.077 C104.489 -0.09 112.636 -0.096 120.783 -0.095 C125.652 -0.095 130.521 -0.098 135.39 -0.108 C139.965 -0.118 144.54 -0.118 149.115 -0.111 C150.798 -0.11 152.481 -0.112 154.163 -0.118 C156.453 -0.126 158.742 -0.121 161.031 -0.114 C162.315 -0.114 163.598 -0.115 164.921 -0.115 C167.889 0.134 167.889 0.134 169.889 2.134 C168.932 2.225 168.932 2.225 167.955 2.317 C167.129 2.401 166.303 2.485 165.451 2.571 C164.628 2.652 163.804 2.734 162.955 2.817 C160.902 2.923 160.902 2.923 159.889 4.134 C158.256 4.291 156.617 4.385 154.979 4.45 C153.495 4.513 153.495 4.513 151.981 4.577 C150.419 4.636 150.419 4.636 148.826 4.696 C147.781 4.739 146.737 4.783 145.66 4.827 C143.07 4.934 140.479 5.036 137.889 5.134 C137.889 6.124 137.889 7.114 137.889 8.134 C134.889 8.134 134.889 8.134 131.889 7.134 C132.879 9.114 132.879 9.114 133.889 11.134 C134.879 10.804 135.869 10.474 136.889 10.134 C136.559 12.114 136.229 14.094 135.889 16.134 C136.549 16.464 137.209 16.794 137.889 17.134 C137.229 17.464 136.569 17.794 135.889 18.134 C138.561 20.477 138.561 20.477 141.889 21.134 C141.889 21.794 141.889 22.454 141.889 23.134 C141.229 23.794 140.569 24.454 139.889 25.134 C140.879 26.124 140.879 26.124 141.889 27.134 C141.229 27.464 140.569 27.794 139.889 28.134 C139.229 27.804 138.569 27.474 137.889 27.134 C138.144 29.477 138.481 31.812 138.889 34.134 C139.549 34.464 140.209 34.794 140.889 35.134 C140.889 35.464 140.889 35.794 140.889 36.134 C141.219 37.124 141.549 38.114 141.889 39.134 C141.229 39.134 140.569 39.134 139.889 39.134 C139.889 40.454 139.889 41.774 139.889 43.134 C140.549 42.804 141.209 42.474 141.889 42.134 C143.217 41.782 144.55 41.446 145.889 41.134 C145.889 42.124 145.889 43.114 145.889 44.134 C146.195 45.474 146.523 46.809 146.889 48.134 C147.879 47.144 147.879 47.144 148.889 46.134 C150.209 46.794 151.529 47.454 152.889 48.134 C151.899 48.794 150.909 49.454 149.889 50.134 C149.559 50.794 149.229 51.454 148.889 52.134 C150.539 51.474 152.189 50.814 153.889 50.134 C154.549 50.794 155.209 51.454 155.889 52.134 C155.229 53.124 154.569 54.114 153.889 55.134 C156.511 57.287 158.533 58.534 161.889 59.134 C161.889 60.124 161.889 61.114 161.889 62.134 C161.229 62.134 160.569 62.134 159.889 62.134 C159.889 62.794 159.889 63.454 159.889 64.134 C161.209 63.804 162.529 63.474 163.889 63.134 C163.889 63.794 163.889 64.454 163.889 65.134 C163.229 65.134 162.569 65.134 161.889 65.134 C161.889 65.794 161.889 66.454 161.889 67.134 C164.222 67.176 166.556 67.175 168.889 67.134 C169.219 66.804 169.549 66.474 169.889 66.134 C171.555 66.093 173.223 66.091 174.889 66.134 C174.889 66.464 174.889 66.794 174.889 67.134 C202.279 67.464 229.669 67.794 257.889 68.134 C257.889 68.464 257.889 68.794 257.889 69.134 C224.172 69.225 190.456 69.296 156.739 69.338 C152.756 69.343 148.773 69.348 144.791 69.353 C143.998 69.354 143.205 69.356 142.388 69.357 C129.559 69.374 116.729 69.406 103.9 69.442 C90.731 69.48 77.562 69.502 64.392 69.51 C56.27 69.516 48.147 69.533 40.025 69.565 C33.791 69.589 27.557 69.592 21.323 69.586 C18.769 69.587 16.216 69.595 13.663 69.611 C10.171 69.63 6.681 69.626 3.19 69.615 C2.184 69.626 1.178 69.638 0.142 69.65 C-7.769 69.583 -14.065 67.525 -20.861 63.509 C-28.775 55.155 -30.328 47.209 -30.424 36.134 C-30.453 35.047 -30.482 33.96 -30.512 32.841 C-30.583 23.674 -29.207 15.177 -22.861 8.196 C-16.012 2.054 -9.05 0.012 0 0 Z M134.889 4.134 C135.889 6.134 135.889 6.134 135.889 6.134 Z M145.889 49.134 C146.889 51.134 146.889 51.134 146.889 51.134 Z M146.889 51.134 C147.889 53.134 147.889 53.134 147.889 53.134 Z M152.889 57.134 C153.889 59.134 153.889 59.134 153.889 59.134 Z M153.889 59.134 C154.879 60.454 155.869 61.774 156.889 63.134 C157.219 61.814 157.549 60.494 157.889 59.134 C156.569 59.134 155.249 59.134 153.889 59.134 Z M157.889 64.134 C158.889 66.134 158.889 66.134 158.889 66.134 Z M141.889 23.134 C143.889 24.134 143.889 24.134 143.889 24.134 Z M142.889 28.134 C142.889 29.124 142.889 30.114 142.889 31.134 C142.229 31.794 141.569 32.454 140.889 33.134 C140.229 32.144 139.569 31.154 138.889 30.134 C140.209 29.474 141.529 28.814 142.889 28.134 Z M140.889 35.134 C142.889 36.134 142.889 36.134 142.889 36.134 Z M141.889 39.134 C143.889 40.134 143.889 40.134 143.889 40.134 Z M147.889 43.134 C148.549 43.464 149.209 43.794 149.889 44.134 C148.404 45.124 148.404 45.124 146.889 46.134 C147.219 45.144 147.549 44.154 147.889 43.134 Z M155.889 52.134 C157.374 53.124 157.374 53.124 158.889 54.134 C157.899 54.134 156.909 54.134 155.889 54.134 C155.889 53.474 155.889 52.814 155.889 52.134 Z M161.889 60.134 C163.869 60.134 165.849 60.134 167.889 60.134 C168.219 61.784 168.549 63.434 168.889 65.134 C165.553 64.022 164.252 62.66 161.889 60.134 Z M164.889 65.134 C165.219 65.794 165.549 66.454 165.889 67.134 C164.899 66.804 163.909 66.474 162.889 66.134 C163.549 65.804 164.209 65.474 164.889 65.134 Z " fill="#5737F1" transform="translate(350.1112365722656,451.8662872314453)"/>
<path d="M0 0 C0.33 0.66 0.66 1.32 1 2 C2.134 1.938 3.269 1.876 4.438 1.812 C12.851 1.857 19.998 5.155 26 11 C32.366 19.198 32.261 26.49 32.375 36.625 C32.431 38.475 32.431 38.475 32.488 40.363 C32.572 49.152 31.39 56.294 25.226 62.902 C17.767 69.788 10.299 71.154 0.437 71.129 C-0.84 71.132 -0.84 71.132 -2.142 71.135 C-4.952 71.139 -7.761 71.136 -10.57 71.133 C-12.532 71.133 -14.494 71.134 -16.456 71.136 C-20.57 71.137 -24.684 71.135 -28.798 71.13 C-34.046 71.125 -39.295 71.128 -44.543 71.134 C-48.598 71.138 -52.652 71.136 -56.707 71.134 C-58.64 71.133 -60.574 71.134 -62.507 71.136 C-72.058 71.145 -81.502 71.137 -91 70 C-91.33 70 -91.66 70 -92 70 C-93.336 69.676 -94.669 69.343 -96 69 C-96 67.35 -96 65.7 -96 64 C-97.32 63.34 -98.64 62.68 -100 62 C-100.495 62.99 -100.495 62.99 -101 64 C-101 63.34 -101 62.68 -101 62 C-102.485 62.495 -102.485 62.495 -104 63 C-105.359 62.035 -106.691 61.031 -108 60 C-110.147 59.295 -110.147 59.295 -112 59 C-112 58.34 -112 57.68 -112 57 C-111.01 57 -110.02 57 -109 57 C-109 56.34 -109 55.68 -109 55 C-110.485 55.495 -110.485 55.495 -112 56 C-114.688 55.062 -114.688 55.062 -117 54 C-117 54.99 -117 55.98 -117 57 C-117.66 57 -118.32 57 -119 57 C-119.33 56.34 -119.66 55.68 -120 55 C-122.917 53.75 -122.917 53.75 -126 53 C-126.99 53.495 -126.99 53.495 -128 54 C-128 52.35 -128 50.7 -128 49 C-128.66 49 -129.32 49 -130 49 C-130.33 48.01 -130.66 47.02 -131 46 C-131.99 46.495 -131.99 46.495 -133 47 C-135.625 46.062 -135.625 46.062 -138 45 C-138 43.68 -138 42.36 -138 41 C-141.98 37.642 -145.995 37.424 -151 37 C-151 36.01 -151 35.02 -151 34 C-151.99 33.67 -152.98 33.34 -154 33 C-153.34 32.34 -152.68 31.68 -152 31 C-154.64 30.67 -157.28 30.34 -160 30 C-160.495 28.515 -160.495 28.515 -161 27 C-160.67 26.34 -160.34 25.68 -160 25 C-160.66 24.67 -161.32 24.34 -162 24 C-162.639 23.67 -163.279 23.34 -163.938 23 C-166.112 21.891 -166.112 21.891 -169 21 C-169 20.67 -169 20.34 -169 20 C-169.99 19.67 -170.98 19.34 -172 19 C-171.34 19 -170.68 19 -170 19 C-170.66 18.01 -171.32 17.02 -172 16 C-172.33 15.34 -172.66 14.68 -173 14 C-176.029 13.342 -176.029 13.342 -179 13 C-179.33 12.01 -179.66 11.02 -180 10 C-180.66 9.34 -181.32 8.68 -182 8 C-182 7.34 -182 6.68 -182 6 C-181.01 5.67 -180.02 5.34 -179 5 C-186.92 4.34 -194.84 3.68 -203 3 C-203 2.67 -203 2.34 -203 2 C-136.01 2 -69.02 2 0 2 C0 1.34 0 0.68 0 0 Z M-138 38 C-137 40 -137 40 -137 40 Z M-183 9 C-182.34 9.33 -181.68 9.66 -181 10 C-181 10.66 -181 11.32 -181 12 C-181.99 11.67 -182.98 11.34 -184 11 C-183.67 10.34 -183.34 9.68 -183 9 Z M-175 16 C-173.68 16 -172.36 16 -171 16 C-171.33 16.99 -171.66 17.98 -172 19 C-172.99 18.01 -173.98 17.02 -175 16 Z M-147 40 C-145 41 -145 41 -145 41 Z M-141 40 C-140.01 40.33 -139.02 40.66 -138 41 C-138.33 41.66 -138.66 42.32 -139 43 C-139.99 42.34 -140.98 41.68 -142 41 C-141.67 40.67 -141.34 40.34 -141 40 Z M-99 63 C-97 64 -97 64 -97 64 Z " fill="#1673F9" transform="translate(904,450)"/>
<path d="M0 0 C0.33 0.66 0.66 1.32 1 2 C15.19 1.67 29.38 1.34 44 1 C44 1.66 44 2.32 44 3 C52.25 3.33 60.5 3.66 69 4 C69 4.33 69 4.66 69 5 C67.865 5.025 66.729 5.05 65.559 5.076 C61.349 5.17 57.139 5.27 52.929 5.372 C51.107 5.416 49.284 5.457 47.462 5.497 C44.843 5.555 42.224 5.619 39.605 5.684 C38.79 5.7 37.974 5.717 37.134 5.734 C33.858 5.82 31.127 5.958 28 7 C28 6.34 28 5.68 28 5 C27.34 5 26.68 5 26 5 C26.33 5.99 26.66 6.98 27 8 C26.34 8 25.68 8 25 8 C24.67 8.66 24.34 9.32 24 10 C22.687 11.353 21.355 12.689 20 14 C20.66 15.65 21.32 17.3 22 19 C18.125 18.125 18.125 18.125 17 17 C14.505 20.743 15.217 21.739 16 26 C15.614 28.318 15.049 29.901 14 32 C15.98 31.505 15.98 31.505 18 31 C17.34 31.99 16.68 32.98 16 34 C16 34.66 16 35.32 16 36 C15.667 37.333 15.333 38.667 15 40 C14.904 42.007 14.904 42.007 15.562 43.875 C16.055 46.267 15.739 47.7 15 50 C15.99 50.33 16.98 50.66 18 51 C18.33 51.66 18.66 52.32 19 53 C20.32 53 21.64 53 23 53 C23 53.66 23 54.32 23 55 C22.34 55.66 21.68 56.32 21 57 C21.33 57.99 21.66 58.98 22 60 C41.8 60.495 41.8 60.495 62 61 C62.33 61.66 62.66 62.32 63 63 C12.51 63 -37.98 63 -90 63 C-90 62.67 -90 62.34 -90 62 C-116.73 61.67 -143.46 61.34 -171 61 C-171 60.34 -171 59.68 -171 59 C-167.867 57.956 -167.01 58.066 -164 59 C-164 57.02 -164 55.04 -164 53 C-163.34 53 -162.68 53 -162 53 C-162.495 49.535 -162.495 49.535 -163 46 C-163.66 46 -164.32 46 -165 46 C-165.33 47.32 -165.66 48.64 -166 50 C-166.66 49.67 -167.32 49.34 -168 49 C-166.25 43.25 -166.25 43.25 -164 41 C-162.39 38.168 -162.39 38.168 -162 35 C-162 34.67 -162 34.34 -162 34 C-162.776 30.925 -162.776 30.925 -165 29 C-163.68 28.67 -162.36 28.34 -161 28 C-161 27.01 -161 26.02 -161 25 C-160.67 24.34 -160.34 23.68 -160 23 C-158.68 24.32 -157.36 25.64 -156 27 C-155.856 26.196 -155.711 25.391 -155.562 24.562 C-155 22 -155 22 -154 21 C-155.32 21 -156.64 21 -158 21 C-156.125 17.125 -156.125 17.125 -155 16 C-155 15.67 -155 15.34 -155 15 C-155.99 14.505 -155.99 14.505 -157 14 C-156.67 13.34 -156.34 12.68 -156 12 C-155.01 12.495 -155.01 12.495 -154 13 C-153.918 12.237 -153.835 11.474 -153.75 10.688 C-152.843 7.439 -151.711 6.849 -149 5 C-170.161 4.197 -191.327 3.784 -212.5 3.438 C-213.178 3.426 -213.856 3.415 -214.555 3.404 C-223.037 3.265 -231.518 3.131 -240 3 C-240 2.67 -240 2.34 -240 2 C-228.024 0.881 -216.112 0.858 -204.095 0.871 C-201.912 0.869 -199.73 0.867 -197.547 0.865 C-191.659 0.861 -185.772 0.862 -179.884 0.866 C-173.712 0.868 -167.54 0.866 -161.368 0.864 C-151.017 0.862 -140.666 0.865 -130.315 0.87 C-118.344 0.875 -106.373 0.873 -94.402 0.868 C-84.112 0.863 -73.822 0.863 -63.532 0.865 C-57.391 0.867 -51.25 0.867 -45.109 0.864 C-39.345 0.861 -33.581 0.863 -27.817 0.869 C-25.7 0.87 -23.583 0.87 -21.466 0.867 C-18.582 0.865 -15.698 0.868 -12.815 0.873 C-11.551 0.87 -11.551 0.87 -10.261 0.866 C-6.671 0.878 -3.455 1.031 0 2 C0 1.34 0 0.68 0 0 Z M-150 7 C-150 7.66 -150 8.32 -150 9 C-150.66 9 -151.32 9 -152 9 C-151.67 9.66 -151.34 10.32 -151 11 C-150.34 11 -149.68 11 -149 11 C-148.67 10.01 -148.34 9.02 -148 8 C-148.66 7.67 -149.32 7.34 -150 7 Z M-147 9 C-147.66 9.66 -148.32 10.32 -149 11 C-149 11.99 -149 12.98 -149 14 C-147.68 13.34 -146.36 12.68 -145 12 C-145.66 11.01 -146.32 10.02 -147 9 Z M19 10 C20 12 20 12 20 12 Z M-159 27 C-159.33 27.99 -159.66 28.98 -160 30 C-159.01 30.495 -159.01 30.495 -158 31 C-158.33 29.68 -158.66 28.36 -159 27 Z M-156 29 C-155.34 29.66 -154.68 30.32 -154 31 C-154 30.34 -154 29.68 -154 29 C-154.66 29 -155.32 29 -156 29 Z M-159 36 C-158 38 -158 38 -158 38 Z M14 52 C14 52.66 14 53.32 14 54 C14.66 53.67 15.32 53.34 16 53 C15.34 52.67 14.68 52.34 14 52 Z M-158 5 C-155.36 5 -152.72 5 -150 5 C-153.228 7.152 -154.284 7.201 -158 7 C-158 6.34 -158 5.68 -158 5 Z M-159 16 C-158.34 16.33 -157.68 16.66 -157 17 C-157.66 17.66 -158.32 18.32 -159 19 C-159 18.01 -159 17.02 -159 16 Z M-163 19 C-162.34 19 -161.68 19 -161 19 C-161.33 19.99 -161.66 20.98 -162 22 C-162.33 21.01 -162.66 20.02 -163 19 Z M17 19 C17.99 19.495 17.99 19.495 19 20 C18.67 20.66 18.34 21.32 18 22 C17.67 21.01 17.34 20.02 17 19 Z M-160 21 C-159.01 21.495 -159.01 21.495 -158 22 C-158.99 22.495 -158.99 22.495 -160 23 C-160 22.34 -160 21.68 -160 21 Z M-157 21 C-156.67 21.66 -156.34 22.32 -156 23 C-156.66 22.67 -157.32 22.34 -158 22 C-157.67 21.67 -157.34 21.34 -157 21 Z M23 21 C23.33 21.66 23.66 22.32 24 23 C23.34 22.67 22.68 22.34 22 22 C22.33 21.67 22.66 21.34 23 21 Z M16 23 C18 24 18 24 18 24 Z M19 23 C19.66 23.33 20.32 23.66 21 24 C20.67 24.66 20.34 25.32 20 26 C19.34 25.34 18.68 24.68 18 24 C18.33 23.67 18.66 23.34 19 23 Z M18 26 C20 27 20 27 20 27 Z M16 27 C16.99 27.495 16.99 27.495 18 28 C17.01 28.495 17.01 28.495 16 29 C16 28.34 16 27.68 16 27 Z M20 31 C20 31.99 20 32.98 20 34 C19.34 33.34 18.68 32.68 18 32 C18.66 31.67 19.32 31.34 20 31 Z M-166 33 C-163 34 -163 34 -163 34 Z M21 34 C21.33 34.66 21.66 35.32 22 36 C21.34 35.67 20.68 35.34 20 35 C20.33 34.67 20.66 34.34 21 34 Z M17 37 C17.66 37 18.32 37 19 37 C19.33 37.66 19.66 38.32 20 39 C20.66 39.33 21.32 39.66 22 40 C20.68 40.99 19.36 41.98 18 43 C18 42.34 18 41.68 18 41 C17.34 41 16.68 41 16 41 C16.33 39.68 16.66 38.36 17 37 Z M21 41 C23 42 23 42 23 42 Z M20 42 C20.33 42.66 20.66 43.32 21 44 C20.34 43.67 19.68 43.34 19 43 C19.33 42.67 19.66 42.34 20 42 Z M18 44 C18 44.99 18 45.98 18 47 C17.01 47.495 17.01 47.495 16 48 C16.66 46.68 17.32 45.36 18 44 Z M21 44 C21.33 44.66 21.66 45.32 22 46 C21.34 45.67 20.68 45.34 20 45 C20.33 44.67 20.66 44.34 21 44 Z M19 47 C19.99 47 20.98 47 22 47 C21.67 47.66 21.34 48.32 21 49 C20.01 49 19.02 49 18 49 C18.33 48.34 18.66 47.68 19 47 Z M-165 50 C-163 51 -163 51 -163 51 Z M-166 51 C-165.34 51.66 -164.68 52.32 -164 53 C-164.66 53 -165.32 53 -166 53 C-166 52.34 -166 51.68 -166 51 Z M-166 54 C-165.34 54.66 -164.68 55.32 -164 56 C-165.65 56 -167.3 56 -169 56 C-168.01 55.34 -167.02 54.68 -166 54 Z M63 61 C65.475 61.495 65.475 61.495 68 62 C66.68 62.33 65.36 62.66 64 63 C63.67 62.34 63.34 61.68 63 61 Z " fill="#702FEB" transform="translate(506,747)"/>
<path d="M0 0 C2 1 2 1 2 1 Z M12.704 0.546 C13.71 0.545 14.716 0.545 15.753 0.544 C19.038 0.547 22.321 0.578 25.605 0.609 C27.899 0.617 30.193 0.623 32.486 0.627 C38.492 0.642 44.497 0.681 50.502 0.725 C56.643 0.766 62.783 0.785 68.924 0.805 C80.949 0.847 92.975 0.916 105 1 C104.67 1.66 104.34 2.32 104 3 C102.68 3 101.36 3 100 3 C100.495 4.485 100.495 4.485 101 6 C98 5 98 5 96 3 C95.827 3.645 95.655 4.289 95.477 4.953 C94 7 94 7 90.523 7.609 C89.141 7.676 87.758 7.722 86.375 7.75 C85.315 7.794 85.315 7.794 84.234 7.84 C82.49 7.911 80.745 7.958 79 8 C79.012 8.843 79.023 9.686 79.035 10.555 C79.044 11.65 79.053 12.746 79.062 13.875 C79.074 14.966 79.086 16.056 79.098 17.18 C79 20 79 20 78 22 C78.557 21.794 79.114 21.587 79.688 21.375 C82.66 20.893 84.32 21.734 87 23 C86.814 23.763 86.629 24.526 86.438 25.312 C85.772 28.09 85.772 28.09 87 31 C87.66 31.33 88.32 31.66 89 32 C88.01 33.32 87.02 34.64 86 36 C88.954 38.37 88.954 38.37 93 38 C93 38.66 93 39.32 93 40 C93.66 40.33 94.32 40.66 95 41 C94.67 41.33 94.34 41.66 94 42 C94.287 44.339 94.619 46.674 95 49 C94.01 49.495 94.01 49.495 93 50 C93.99 51.98 93.99 51.98 95 54 C96.98 53.67 98.96 53.34 101 53 C101 53.66 101 54.32 101 55 C101.66 55 102.32 55 103 55 C103 56.98 103 58.96 103 61 C104.32 61 105.64 61 107 61 C107.66 61 108.32 61 109 61 C109 61.66 109 62.32 109 63 C111.64 63.33 114.28 63.66 117 64 C116.002 66.993 115.248 67.948 113 70 C115.475 69.505 115.475 69.505 118 69 C118 69.33 118 69.66 118 70 C149.68 70.495 149.68 70.495 182 71 C182 71.33 182 71.66 182 72 C158.052 72.248 134.104 72.466 110.155 72.65 C99.035 72.736 87.915 72.832 76.795 72.95 C67.101 73.053 57.407 73.138 47.712 73.201 C42.581 73.236 37.45 73.279 32.319 73.343 C27.484 73.404 22.65 73.441 17.815 73.459 C16.046 73.47 14.276 73.49 12.507 73.519 C1.417 73.694 -6.942 72.981 -15.812 65.688 C-23.098 56.737 -25.388 48.574 -25.312 37.125 C-25.308 36.244 -25.303 35.363 -25.298 34.455 C-25.162 26.922 -24.71 20.329 -19.812 14.312 C-18.884 13.549 -17.956 12.786 -17 12 C-16.434 11.435 -15.868 10.871 -15.285 10.289 C-7.301 2.55 1.827 0.377 12.704 0.546 Z M88 39 C89 41 89 41 89 41 Z M86 41 C86.66 41.66 87.32 42.32 88 43 C88 42.34 88 41.68 88 41 C87.34 41 86.68 41 86 41 Z M111 65 C110.67 65.66 110.34 66.32 110 67 C110.99 67.33 111.98 67.66 113 68 C113 67.01 113 66.02 113 65 C112.34 65 111.68 65 111 65 Z M96 5 C96.99 5.495 96.99 5.495 98 6 C97.01 6.495 97.01 6.495 96 7 C96 6.34 96 5.68 96 5 Z M79 16 C79.99 16.33 80.98 16.66 82 17 C81.67 18.32 81.34 19.64 81 21 C80.34 20.67 79.68 20.34 79 20 C79 18.68 79 17.36 79 16 Z M90 33 C92 34 92 34 92 34 Z M92 34 C92 34.99 92 35.98 92 37 C91.34 37 90.68 37 90 37 C90 36.34 90 35.68 90 35 C90.66 34.67 91.32 34.34 92 34 Z M95 49 C98 50 98 50 98 50 Z " fill="#5438F0" transform="translate(578,577)"/>
<path d="M0 0 C0.33 0 0.66 0 1 0 C1 2.31 1 4.62 1 7 C0.67 7 0.34 7 0 7 C0 4.69 0 2.38 0 0 Z M-1 7 C-0.67 7 -0.34 7 0 7 C0.33 39.34 0.66 71.68 1 105 C2.32 105.33 3.64 105.66 5 106 C5 106.66 5 107.32 5 108 C8.167 106.167 8.167 106.167 10 103 C11.562 104.688 11.562 104.688 13 107 C12.688 109.75 12.688 109.75 12 112 C12.949 111.979 13.898 111.959 14.875 111.938 C18 112 18 112 20 113 C20.33 112.34 20.66 111.68 21 111 C22.485 111.495 22.485 111.495 24 112 C24.99 111.01 24.99 111.01 26 110 C27.546 112.319 28.796 114.506 30 117 C30 116.01 30 115.02 30 114 C32.97 114.495 32.97 114.495 36 115 C36 115.66 36 116.32 36 117 C35.01 117.495 35.01 117.495 34 118 C34.33 118.99 34.66 119.98 35 121 C37.496 120.219 37.496 120.219 40 119 C40.495 117.515 40.495 117.515 41 116 C41.33 117.65 41.66 119.3 42 121 C42.66 120.34 43.32 119.68 44 119 C47 120 47 120 52 128 C52.33 92.03 52.66 56.06 53 19 C53.33 19 53.66 19 54 19 C54.023 46.018 54.041 73.036 54.052 100.054 C54.057 112.601 54.064 125.147 54.075 137.694 C54.085 148.638 54.092 159.583 54.094 170.527 C54.095 176.314 54.098 182.101 54.106 187.889 C54.113 193.353 54.115 198.816 54.113 204.28 C54.113 206.27 54.115 208.259 54.119 210.248 C54.144 223.528 53.743 236.74 53 250 C49.063 251.312 46.875 250.243 43 249 C43 248.01 43 247.02 43 246 C41.68 245.67 40.36 245.34 39 245 C39 244.01 39 243.02 39 242 C38.34 242.99 37.68 243.98 37 245 C35.35 244.34 33.7 243.68 32 243 C31.67 243.33 31.34 243.66 31 244 C28.5 242.625 28.5 242.625 26 241 C26 240.34 26 239.68 26 239 C25.257 239.186 24.515 239.371 23.75 239.562 C21.05 239.992 19.554 239.851 17 239 C17 237.68 17 236.36 17 235 C16.446 235.217 15.891 235.433 15.32 235.656 C14.234 236.074 14.234 236.074 13.125 236.5 C12.046 236.918 12.046 236.918 10.945 237.344 C9 238 9 238 7 238 C6.67 237.67 6.34 237.34 6 237 C5.01 237 4.02 237 3 237 C2.505 237.99 2.505 237.99 2 239 C1.34 239 0.68 239 0 239 C-0.829 211.086 -1.142 183.2 -1.101 155.274 C-1.095 150.031 -1.095 144.787 -1.093 139.544 C-1.09 129.689 -1.082 119.834 -1.072 109.979 C-1.061 98.728 -1.055 87.477 -1.05 76.226 C-1.04 53.151 -1.022 30.075 -1 7 Z M20 113 C20.33 113.99 20.66 114.98 21 116 C21.66 115.34 22.32 114.68 23 114 C22.01 113.67 21.02 113.34 20 113 Z M31 118 C32 120 32 120 32 120 Z M45 122 C44.34 122.66 43.68 123.32 43 124 C43.99 124.33 44.98 124.66 46 125 C45.67 124.01 45.34 123.02 45 122 Z M52 129 C51.174 131.892 51 133.887 51 137 C51.66 137 52.32 137 53 137 C53 134.36 53 131.72 53 129 C52.67 129 52.34 129 52 129 Z M8 233 C8.33 233.99 8.66 234.98 9 236 C9 235.01 9 234.02 9 233 C8.67 233 8.34 233 8 233 Z M4 104 C4.66 104 5.32 104 6 104 C5.67 104.66 5.34 105.32 5 106 C4.67 105.34 4.34 104.68 4 104 Z M13 104 C13.99 104 14.98 104 16 104 C15.67 104.66 15.34 105.32 15 106 C14.34 105.34 13.68 104.68 13 104 Z M21 105 C21.33 105.66 21.66 106.32 22 107 C21.34 106.67 20.68 106.34 20 106 C20.33 105.67 20.66 105.34 21 105 Z M6 106 C8 107 8 107 8 107 Z M16 106 C17.938 106.312 17.938 106.312 20 107 C20.33 107.99 20.66 108.98 21 110 C20.01 110.495 20.01 110.495 19 111 C17.5 109.625 17.5 109.625 16 108 C16 107.34 16 106.68 16 106 Z M22 107 C25 108 25 108 25 108 Z M26 107 C26.33 107.66 26.66 108.32 27 109 C26.34 108.67 25.68 108.34 25 108 C25.33 107.67 25.66 107.34 26 107 Z M13 110 C15 111 15 111 15 111 Z M33 113 C35 114 35 114 35 114 Z M50 123 C52 124 52 124 52 124 Z M14 238 C15.485 238.99 15.485 238.99 17 240 C15.68 239.67 14.36 239.34 13 239 C13.33 238.67 13.66 238.34 14 238 Z M8 240 C11 241 11 241 11 241 Z M26 242 C27.485 242.99 27.485 242.99 29 244 C28.01 244.33 27.02 244.66 26 245 C26 244.01 26 243.02 26 242 Z M31 244 C31.66 244.66 32.32 245.32 33 246 C32.34 246 31.68 246 31 246 C31 245.34 31 244.68 31 244 Z M36 245 C37.65 245.33 39.3 245.66 41 246 C40.01 246.495 40.01 246.495 39 247 C38.67 247.66 38.34 248.32 38 249 C37.01 248.34 36.02 247.68 35 247 C35.33 246.34 35.66 245.68 36 245 Z " fill="#5739F2" transform="translate(149,271)"/>
<path d="M0 0 C0.99 0.495 0.99 0.495 2 1 C1.67 1.66 1.34 2.32 1 3 C0.67 2.01 0.34 1.02 0 0 Z M45 -4 C45.33 -4 45.66 -4 46 -4 C46.093 21.618 45.834 47.229 45.536 72.845 C45.475 78.183 45.415 83.521 45.355 88.859 C45.239 99.24 45.12 109.62 45 120 C44.34 120 43.68 120 43 120 C43.33 117.03 43.66 114.06 44 111 C43.237 111.33 42.474 111.66 41.688 112 C39 113 39 113 36 113 C34.98 114.318 33.98 115.652 33 117 C32.01 117.33 31.02 117.66 30 118 C30.33 116.35 30.66 114.7 31 113 C27.925 113.776 27.925 113.776 26 116 C24.68 114.35 23.36 112.7 22 111 C21.01 111.99 21.01 111.99 20 113 C20 112.01 20 111.02 20 110 C16.04 110.99 16.04 110.99 12 112 C11.67 109.69 11.34 107.38 11 105 C10.34 105 9.68 105 9 105 C9.33 105.99 9.66 106.98 10 108 C9.34 108 8.68 108 8 108 C7.34 107.01 6.68 106.02 6 105 C4.68 105.99 3.36 106.98 2 108 C1.34 106.68 0.68 105.36 0 104 C-1.65 104 -3.3 104 -5 104 C-5.33 101.36 -5.66 98.72 -6 96 C-6.33 101.28 -6.66 106.56 -7 112 C-7.33 112 -7.66 112 -8 112 C-8.117 98.231 -8.205 84.463 -8.259 70.693 C-8.285 64.3 -8.321 57.907 -8.377 51.514 C-8.431 45.348 -8.461 39.182 -8.474 33.016 C-8.484 30.66 -8.502 28.304 -8.529 25.948 C-8.565 22.655 -8.57 19.364 -8.568 16.071 C-8.586 15.091 -8.604 14.11 -8.622 13.1 C-8.603 10.629 -8.562 8.406 -8 6 C-5.515 4.007 -5.515 4.007 -3 3 C-2.122 0.915 -2.122 0.915 -2 -1 C-1.67 0.98 -1.34 2.96 -1 5 C1.352 4.401 3.686 3.731 6 3 C6.33 2.34 6.66 1.68 7 1 C7.99 1.33 8.98 1.66 10 2 C9.67 3.32 9.34 4.64 9 6 C9.907 5.897 10.815 5.794 11.75 5.688 C15 6 15 6 17.375 8.5 C17.911 9.325 18.447 10.15 19 11 C19.99 10.34 20.98 9.68 22 9 C22.99 8.34 23.98 7.68 25 7 C25 7.99 25 8.98 25 10 C26.32 10.33 27.64 10.66 29 11 C29 11.99 29 12.98 29 14 C30.98 13.67 32.96 13.34 35 13 C35.495 14.485 35.495 14.485 36 16 C40.102 17.015 40.102 17.015 44 16 C44.33 9.4 44.66 2.8 45 -4 Z M6 5 C5.67 5.66 5.34 6.32 5 7 C6.32 6.67 7.64 6.34 9 6 C8.01 5.67 7.02 5.34 6 5 Z M15 8 C16 10 16 10 16 10 Z M23 11 C23 11.66 23 12.32 23 13 C23.66 12.67 24.32 12.34 25 12 C24.34 11.67 23.68 11.34 23 11 Z M10 4 C13 5 13 5 13 5 Z M16 6 C16.66 6 17.32 6 18 6 C17.67 6.66 17.34 7.32 17 8 C16.67 7.34 16.34 6.68 16 6 Z M32 7 C34 8 34 8 34 8 Z M18 8 C18.99 8.33 19.98 8.66 21 9 C20.01 9 19.02 9 18 9 C18 8.67 18 8.34 18 8 Z M31 8 C31.66 8.66 32.32 9.32 33 10 C32.34 10 31.68 10 31 10 C30.67 10.66 30.34 11.32 30 12 C29.67 11.01 29.34 10.02 29 9 C29.66 8.67 30.32 8.34 31 8 Z M31 12 C33 13 33 13 33 13 Z M4 106 C6 107 6 107 6 107 Z M28 114 C30 115 30 115 30 115 Z M23 114 C23.33 114.99 23.66 115.98 24 117 C23.01 117.33 22.02 117.66 21 118 C22 115 22 115 23 114 Z M27 116 C27.66 116 28.32 116 29 116 C29 116.66 29 117.32 29 118 C28.34 118 27.68 118 27 118 C27 117.34 27 116.68 27 116 Z " fill="#702FEB" transform="translate(157,504)"/>
<path d="M0 0 C1.121 0 2.242 0 3.397 0 C4.601 0.005 5.805 0.011 7.046 0.016 C8.283 0.017 9.521 0.019 10.795 0.02 C14.077 0.025 17.358 0.034 20.639 0.045 C23.991 0.055 27.343 0.06 30.694 0.065 C37.265 0.076 43.835 0.092 50.405 0.114 C50.405 0.444 50.405 0.774 50.405 1.114 C49.562 1.187 49.562 1.187 48.702 1.262 C43.883 1.691 39.068 2.145 34.257 2.66 C32.906 2.803 32.906 2.803 31.527 2.948 C29.701 3.141 27.875 3.339 26.049 3.541 C25.205 3.629 24.361 3.718 23.491 3.809 C22.729 3.891 21.966 3.974 21.18 4.059 C20.302 4.086 20.302 4.086 19.405 4.114 C18.91 3.619 18.91 3.619 18.405 3.114 C17.064 3.412 15.732 3.755 14.405 4.114 C12.407 4.459 10.408 4.795 8.405 5.114 C8.405 5.774 8.405 6.434 8.405 7.114 C7.415 7.114 6.425 7.114 5.405 7.114 C6.395 9.754 7.385 12.394 8.405 15.114 C7.745 15.114 7.085 15.114 6.405 15.114 C6.9 16.599 6.9 16.599 7.405 18.114 C6.415 18.774 5.425 19.434 4.405 20.114 C4.931 21.289 4.931 21.289 5.468 22.489 C5.777 23.355 6.087 24.221 6.405 25.114 C6.075 25.774 5.745 26.434 5.405 27.114 C7.385 27.774 9.365 28.434 11.405 29.114 C10.53 34.989 10.53 34.989 9.405 36.114 C10.725 36.774 12.045 37.434 13.405 38.114 C13.096 38.856 12.787 39.599 12.468 40.364 C11.596 42.62 10.929 44.759 10.405 47.114 C11.045 46.928 11.684 46.742 12.343 46.551 C13.023 46.407 13.704 46.262 14.405 46.114 C15.405 47.114 15.405 47.114 15.468 49.676 C15.447 50.48 15.427 51.285 15.405 52.114 C14.085 52.114 12.765 52.114 11.405 52.114 C11.426 52.918 11.447 53.722 11.468 54.551 C11.405 57.114 11.405 57.114 10.405 58.114 C11.395 58.609 11.395 58.609 12.405 59.114 C13.233 61.598 13.405 63.466 13.405 66.114 C12.745 66.114 12.085 66.114 11.405 66.114 C11.405 66.774 11.405 67.434 11.405 68.114 C32.195 68.114 52.985 68.114 74.405 68.114 C74.405 68.444 74.405 68.774 74.405 69.114 C64.017 69.206 53.629 69.277 43.24 69.321 C38.415 69.342 33.591 69.37 28.767 69.415 C24.105 69.459 19.443 69.483 14.781 69.493 C13.008 69.5 11.236 69.515 9.463 69.536 C-1.444 69.665 -9.742 69.163 -19.345 63.489 C-27.259 55.135 -28.811 47.188 -28.907 36.114 C-28.936 35.027 -28.965 33.94 -28.995 32.821 C-29.066 23.654 -27.691 15.157 -21.345 8.176 C-15.094 2.571 -8.335 -0.019 0 0 Z M9.405 39.114 C9.735 39.774 10.065 40.434 10.405 41.114 C11.065 40.454 11.725 39.794 12.405 39.114 C11.415 39.114 10.425 39.114 9.405 39.114 Z M8.405 41.114 C9.405 43.114 9.405 43.114 9.405 43.114 Z M6.405 44.114 C6.405 44.774 6.405 45.434 6.405 46.114 C7.395 45.784 8.385 45.454 9.405 45.114 C8.415 44.784 7.425 44.454 6.405 44.114 Z M8.405 52.114 C9.065 52.774 9.725 53.434 10.405 54.114 C10.405 53.454 10.405 52.794 10.405 52.114 C9.745 52.114 9.085 52.114 8.405 52.114 Z M8.405 5.114 C10.405 6.114 10.405 6.114 10.405 6.114 Z M10.405 6.114 C10.405 7.104 10.405 8.094 10.405 9.114 C9.745 8.454 9.085 7.794 8.405 7.114 C9.065 6.784 9.725 6.454 10.405 6.114 Z M6.405 8.114 C7.065 8.114 7.725 8.114 8.405 8.114 C8.075 9.104 7.745 10.094 7.405 11.114 C7.075 10.124 6.745 9.134 6.405 8.114 Z M8.405 11.114 C9.065 11.114 9.725 11.114 10.405 11.114 C10.075 12.104 9.745 13.094 9.405 14.114 C9.075 13.124 8.745 12.134 8.405 11.114 Z M8.405 17.114 C8.405 20.114 8.405 20.114 8.405 20.114 Z M4.405 20.114 C7.045 20.114 9.685 20.114 12.405 20.114 C11.745 21.434 11.085 22.754 10.405 24.114 C10.405 23.454 10.405 22.794 10.405 22.114 C8.425 23.104 8.425 23.104 6.405 24.114 C5.745 22.794 5.085 21.474 4.405 20.114 Z M9.405 24.114 C9.735 24.774 10.065 25.434 10.405 26.114 C9.745 25.784 9.085 25.454 8.405 25.114 C8.735 24.784 9.065 24.454 9.405 24.114 Z M11.405 30.114 C13.405 31.114 13.405 31.114 13.405 31.114 Z M11.405 35.114 C12.395 35.609 12.395 35.609 13.405 36.114 C12.415 36.609 12.415 36.609 11.405 37.114 C11.405 36.454 11.405 35.794 11.405 35.114 Z M11.405 42.114 C13.405 43.114 13.405 43.114 13.405 43.114 Z M11.405 45.114 C13.405 46.114 13.405 46.114 13.405 46.114 Z M15.405 63.114 C16.065 63.114 16.725 63.114 17.405 63.114 C17.405 64.104 17.405 65.094 17.405 66.114 C16.415 65.784 15.425 65.454 14.405 65.114 C14.735 64.454 15.065 63.794 15.405 63.114 Z " fill="#702FEA" transform="translate(348.5947265625,451.886474609375)"/>
<path d="M0 0 C0.79 -0.003 1.58 -0.006 2.395 -0.01 C10.561 0.064 18.02 1.011 24.5 6.312 C30.762 12.86 31.973 18.738 31.812 27.559 C30.555 42.662 25.164 57.33 17.5 70.312 C17.17 69.653 16.84 68.993 16.5 68.312 C17.424 66.181 18.555 64.214 19.688 62.188 C19.956 61.569 20.224 60.95 20.5 60.312 C20.17 59.653 19.84 58.992 19.5 58.312 C19.17 57.322 18.84 56.332 18.5 55.312 C17.51 55.312 16.52 55.312 15.5 55.312 C15.17 55.312 14.84 55.312 14.5 55.312 C13.84 54.653 13.18 53.992 12.5 53.312 C11.175 52.629 9.841 51.963 8.5 51.312 C7.51 50.653 6.52 49.992 5.5 49.312 C6.16 49.312 6.82 49.312 7.5 49.312 C7.17 48.322 6.84 47.332 6.5 46.312 C7.16 45.982 7.82 45.653 8.5 45.312 C7.21 44.808 5.918 44.309 4.625 43.812 C3.906 43.534 3.186 43.256 2.445 42.969 C0.526 42.206 0.526 42.206 -1.5 42.312 C-1.83 41.322 -2.16 40.332 -2.5 39.312 C-1.84 38.322 -1.18 37.332 -0.5 36.312 C-2.723 35.814 -4.947 35.318 -7.172 34.828 C-8.93 34.439 -10.684 34.035 -12.438 33.625 C-14.558 33.101 -14.558 33.101 -16.5 34.312 C-16.5 32.992 -16.5 31.673 -16.5 30.312 C-14.85 30.643 -13.2 30.972 -11.5 31.312 C-11.5 30.653 -11.5 29.992 -11.5 29.312 C-13.48 28.653 -15.46 27.992 -17.5 27.312 C-17.5 25.992 -17.5 24.673 -17.5 23.312 C-18.16 23.312 -18.82 23.312 -19.5 23.312 C-19.5 22.653 -19.5 21.992 -19.5 21.312 C-20.49 21.643 -21.48 21.972 -22.5 22.312 C-23.16 21.653 -23.82 20.992 -24.5 20.312 C-24.17 19.322 -23.84 18.332 -23.5 17.312 C-24.16 17.312 -24.82 17.312 -25.5 17.312 C-26.16 15.992 -26.82 14.673 -27.5 13.312 C-20.884 2.53 -12.183 -0.248 0 0 Z M-23.5 14.312 C-23.5 15.303 -23.5 16.293 -23.5 17.312 C-22.51 16.982 -21.52 16.653 -20.5 16.312 C-20.83 15.653 -21.16 14.992 -21.5 14.312 C-22.16 14.312 -22.82 14.312 -23.5 14.312 Z M-19.5 14.312 C-19.17 15.303 -18.84 16.293 -18.5 17.312 C-18.5 16.322 -18.5 15.332 -18.5 14.312 C-18.83 14.312 -19.16 14.312 -19.5 14.312 Z M-18.5 19.312 C-17.5 21.312 -17.5 21.312 -17.5 21.312 Z M-15.5 21.312 C-14.84 21.972 -14.18 22.633 -13.5 23.312 C-13.5 22.653 -13.5 21.992 -13.5 21.312 C-14.16 21.312 -14.82 21.312 -15.5 21.312 Z M14.5 49.312 C15.5 51.312 15.5 51.312 15.5 51.312 Z M-24.5 25.312 C-23.84 25.972 -23.18 26.633 -22.5 27.312 C-23.16 27.312 -23.82 27.312 -24.5 27.312 C-24.5 26.653 -24.5 25.992 -24.5 25.312 Z M-20.5 25.312 C-19.51 25.808 -19.51 25.808 -18.5 26.312 C-19.49 26.808 -19.49 26.808 -20.5 27.312 C-20.5 26.653 -20.5 25.992 -20.5 25.312 Z M-15.5 34.312 C-12.5 35.312 -12.5 35.312 -12.5 35.312 Z M-12.5 35.312 C-10.5 36.312 -10.5 36.312 -10.5 36.312 Z M-1.5 43.312 C0.5 44.312 0.5 44.312 0.5 44.312 Z M14.5 72.312 C14.5 75.312 14.5 75.312 14.5 75.312 Z M12.5 75.312 C12.5 78.312 12.5 78.312 12.5 78.312 Z M10.5 78.312 C10.5 81.312 10.5 81.312 10.5 81.312 Z M8.5 81.312 C8.5 84.312 8.5 84.312 8.5 84.312 Z M5.5 85.312 C5.5 88.312 5.5 88.312 4.188 89.699 C2.625 90.904 1.062 92.108 -0.5 93.312 C0.943 89.947 2.833 87.802 5.5 85.312 Z M-1.5 93.312 C-1.5 96.312 -1.5 96.312 -3.906 98.793 C-4.93 99.704 -5.962 100.606 -7 101.5 C-7.525 101.963 -8.049 102.427 -8.59 102.904 C-9.887 104.048 -11.192 105.181 -12.5 106.312 C-13.16 105.982 -13.82 105.653 -14.5 105.312 C-10.21 101.352 -5.92 97.393 -1.5 93.312 Z M-16.5 106.312 C-15.84 106.643 -15.18 106.972 -14.5 107.312 C-16.48 108.303 -16.48 108.303 -18.5 109.312 C-17.84 108.322 -17.18 107.332 -16.5 106.312 Z M-20.5 109.312 C-19.84 109.643 -19.18 109.972 -18.5 110.312 C-20.15 111.633 -21.8 112.952 -23.5 114.312 C-24.16 113.982 -24.82 113.653 -25.5 113.312 C-23.85 111.992 -22.2 110.673 -20.5 109.312 Z " fill="#413FE9" transform="translate(752.5,676.6875)"/>
<path d="M0 0 C0.33 0.99 0.66 1.98 1 3 C-0.812 6.188 -0.812 6.188 -3 9 C-3.66 9 -4.32 9 -5 9 C-3.502 5.888 -1.801 2.947 0 0 Z M-8 10 C-7.34 10.33 -6.68 10.66 -6 11 C-7.98 11.99 -7.98 11.99 -10 13 C-9.34 12.01 -8.68 11.02 -8 10 Z M-12 13 C-11.34 13.33 -10.68 13.66 -10 14 C-10.99 14.66 -11.98 15.32 -13 16 C-13.99 15.67 -14.98 15.34 -16 15 C-14.125 13.938 -14.125 13.938 -12 13 Z M-16 17 C-17.134 17.124 -18.269 17.248 -19.438 17.375 C-20.613 17.581 -21.789 17.788 -23 18 C-23.33 18.66 -23.66 19.32 -24 20 C-29.78 20.025 -35.56 20.043 -41.34 20.055 C-43.302 20.06 -45.264 20.067 -47.226 20.075 C-68.149 20.166 -68.149 20.166 -77 19 C-77.33 19.66 -77.66 20.32 -78 21 C-78 20.34 -78 19.68 -78 19 C-79.886 19.053 -79.886 19.053 -81.81 19.108 C-119.633 20.128 -157.419 19.958 -195.25 19.562 C-196.478 19.55 -197.706 19.537 -198.972 19.524 C-214.315 19.362 -229.657 19.187 -245 19 C-245 19.66 -245 20.32 -245 21 C-245.66 20.67 -246.32 20.34 -247 20 C-249.936 19.711 -252.146 19.496 -255 20 C-257.918 22.25 -257.918 22.25 -260 25 C-260.66 25.66 -261.32 26.32 -262 27 C-261.705 23.465 -261.251 22.238 -258.625 19.75 C-253.836 16.557 -249.379 16.845 -243.821 16.835 C-242.869 16.829 -241.918 16.824 -240.938 16.818 C-237.737 16.8 -234.536 16.79 -231.334 16.779 C-229.045 16.768 -226.755 16.756 -224.466 16.744 C-218.237 16.713 -212.007 16.687 -205.778 16.664 C-199.268 16.638 -192.759 16.608 -186.249 16.578 C-174.613 16.526 -162.977 16.479 -151.342 16.434 C-140.79 16.393 -130.237 16.347 -119.685 16.297 C-107.437 16.239 -95.188 16.184 -82.939 16.134 C-76.453 16.108 -69.968 16.08 -63.482 16.049 C-57.384 16.02 -51.287 15.995 -45.189 15.975 C-42.948 15.967 -40.706 15.957 -38.465 15.945 C-35.412 15.929 -32.359 15.919 -29.306 15.911 C-28.414 15.905 -27.521 15.899 -26.601 15.892 C-25.783 15.892 -24.965 15.891 -24.123 15.89 C-23.418 15.887 -22.713 15.884 -21.987 15.881 C-19.886 16.007 -18.021 16.428 -16 17 Z M-263 27 C-262.67 27 -262.34 27 -262 27 C-260.96 34.82 -260.953 42.421 -261.127 50.297 C-261.204 57.085 -260.445 63.368 -259 70 C-261.248 67.948 -262.002 66.993 -263 64 C-263.085 61.196 -263.116 58.417 -263.098 55.613 C-263.096 54.796 -263.095 53.979 -263.093 53.137 C-263.088 50.529 -263.075 47.921 -263.062 45.312 C-263.057 43.544 -263.053 41.775 -263.049 40.006 C-263.038 35.671 -263.021 31.335 -263 27 Z M-259 70 C-257.02 70.66 -255.04 71.32 -253 72 C-253.99 72.33 -254.98 72.66 -256 73 C-256.99 72.01 -257.98 71.02 -259 70 Z M-253 73 C-156.64 73 -60.28 73 39 73 C39 73.33 39 73.66 39 74 C-57.36 74 -153.72 74 -253 74 C-253 73.67 -253 73.34 -253 73 Z " fill="#162B90" transform="translate(865,378)"/>
<path d="M0 0 C51.212 -0.069 102.424 -0.122 153.636 -0.153 C159.685 -0.157 165.734 -0.161 171.783 -0.165 C172.988 -0.166 174.192 -0.166 175.433 -0.167 C194.919 -0.18 214.406 -0.204 233.892 -0.231 C253.895 -0.26 273.897 -0.276 293.899 -0.282 C306.237 -0.286 318.574 -0.299 330.912 -0.324 C339.378 -0.34 347.844 -0.344 356.31 -0.341 C361.191 -0.339 366.071 -0.341 370.952 -0.358 C375.429 -0.372 379.906 -0.373 384.383 -0.363 C385.994 -0.361 387.606 -0.365 389.217 -0.375 C401.117 -0.441 412.912 0.2 424 5 C420.464 6.233 418.411 5.699 414.875 4.625 C408.485 3.073 402.339 2.618 395.777 2.405 C394.652 2.365 393.527 2.326 392.367 2.285 C377.335 1.816 362.297 1.873 347.259 1.899 C342.817 1.905 338.375 1.906 333.933 1.907 C326.264 1.91 318.596 1.916 310.928 1.925 C299.825 1.937 288.722 1.943 277.619 1.948 C259.576 1.955 241.533 1.966 223.49 1.979 C221.877 1.981 221.877 1.981 220.23 1.982 C212.591 1.988 204.952 1.994 197.312 2 C188.567 2.007 179.821 2.014 171.075 2.021 C169.459 2.022 169.459 2.022 167.809 2.023 C149.813 2.037 131.816 2.046 113.82 2.053 C102.748 2.058 91.675 2.066 80.603 2.079 C73.021 2.087 65.439 2.092 57.857 2.094 C53.491 2.095 49.124 2.098 44.758 2.106 C40.752 2.113 36.746 2.115 32.74 2.113 C31.3 2.113 29.861 2.115 28.421 2.119 C18.897 2.144 9.491 1.745 0 1 C0 0.67 0 0.34 0 0 Z M-7 1 C-4.69 1 -2.38 1 0 1 C0 1.33 0 1.66 0 2 C-2.31 2 -4.62 2 -7 2 C-7 1.67 -7 1.34 -7 1 Z M-11 2 C-7 3 -7 3 -7 3 Z M-11 4 C-12.266 4.532 -13.538 5.05 -14.812 5.562 C-15.52 5.853 -16.228 6.143 -16.957 6.441 C-19 7 -19 7 -22 6 C-15.036 2.652 -15.036 2.652 -11 4 Z M424 6 C426 7 426 7 426 7 Z " fill="#1B37A7" transform="translate(264,225)"/>
<path d="M0 0 C0.33 0.66 0.66 1.32 1 2 C14.86 2 28.72 2 43 2 C43 2.33 43 2.66 43 3 C15.674 3.746 -11.63 4.154 -38.966 4.134 C-43.739 4.132 -48.512 4.134 -53.285 4.136 C-61.301 4.138 -69.318 4.135 -77.334 4.13 C-85.416 4.126 -93.498 4.126 -101.58 4.13 C-147.73 4.157 -193.859 4.045 -240 3 C-240 2.67 -240 2.34 -240 2 C-228.024 0.881 -216.112 0.858 -204.095 0.871 C-201.912 0.869 -199.73 0.867 -197.547 0.865 C-191.659 0.861 -185.772 0.862 -179.884 0.866 C-173.712 0.868 -167.54 0.866 -161.368 0.864 C-151.017 0.862 -140.666 0.865 -130.315 0.87 C-118.344 0.875 -106.373 0.873 -94.402 0.868 C-84.112 0.863 -73.822 0.863 -63.532 0.865 C-57.391 0.867 -51.25 0.867 -45.109 0.864 C-39.345 0.861 -33.581 0.863 -27.817 0.869 C-25.7 0.87 -23.583 0.87 -21.466 0.867 C-18.582 0.865 -15.698 0.868 -12.815 0.873 C-11.551 0.87 -11.551 0.87 -10.261 0.866 C-6.671 0.878 -3.455 1.031 0 2 C0 1.34 0 0.68 0 0 Z " fill="#391C9B" transform="translate(506,747)"/>
<path d="M0 0 C13.978 0.061 27.956 0.138 41.933 0.236 C48.424 0.28 54.914 0.32 61.405 0.346 C67.668 0.372 73.932 0.413 80.195 0.463 C82.585 0.48 84.975 0.491 87.364 0.498 C90.711 0.507 94.058 0.535 97.405 0.568 C98.393 0.566 99.381 0.565 100.4 0.563 C105.677 0.635 109.451 1.017 114 4 C115.875 6.188 115.875 6.188 117 8 C116.67 8.66 116.34 9.32 116 10 C115.381 9.196 114.763 8.391 114.125 7.562 C112.258 4.961 112.258 4.961 110 4 C107.619 3.912 105.267 3.885 102.886 3.902 C102.152 3.904 101.418 3.905 100.662 3.907 C99.062 3.911 97.461 3.917 95.861 3.925 C93.305 3.938 90.749 3.944 88.192 3.949 C81.823 3.962 75.454 3.986 69.084 4.01 C12.217 4.223 12.217 4.223 1 2 C0.67 1.34 0.34 0.68 0 0 Z " fill="#282AA5" transform="translate(452,394)"/>
<path d="M0 0 C1.65 0 3.3 0 5 0 C5 0.33 5 0.66 5 1 C46.085 1.495 46.085 1.495 88 2 C88 2.33 88 2.66 88 3 C58.63 3 29.26 3 -1 3 C-0.67 2.01 -0.34 1.02 0 0 Z " fill="#513BF3" transform="translate(520,518)"/>
<path d="M0 0 C0.125 2.875 0.125 2.875 0 6 C-0.66 6.66 -1.32 7.32 -2 8 C-2 7.34 -2 6.68 -2 6 C-5.367 7.393 -6.986 8.979 -9 12 C-9.66 10.68 -10.32 9.36 -11 8 C-9.333 6.333 -7.667 4.667 -6 3 C-5.464 2.402 -4.928 1.804 -4.375 1.188 C-3 0 -3 0 0 0 Z " fill="#513FF3" transform="translate(736,682)"/>
<path d="M0 0 C1.65 0 3.3 0 5 0 C3.688 2.5 3.688 2.5 2 5 C1.01 5 0.02 5 -1 5 C-0.67 3.35 -0.34 1.7 0 0 Z M2 5 C3.65 5.33 5.3 5.66 7 6 C7 6.99 7 7.98 7 9 C3.37 9 -0.26 9 -4 9 C-3.67 8.34 -3.34 7.68 -3 7 C-1.35 7 0.3 7 2 7 C2 6.34 2 5.68 2 5 Z " fill="#2462F8" transform="translate(329,216)"/>
<path d="M0 0 C1.65 0 3.3 0 5 0 C5 0.33 5 0.66 5 1 C14.57 1.33 24.14 1.66 34 2 C34 2.33 34 2.66 34 3 C22.45 3 10.9 3 -1 3 C-0.67 2.01 -0.34 1.02 0 0 Z " fill="#523AF2" transform="translate(520,518)"/>
<path d="M0 0 C0.33 0.66 0.66 1.32 1 2 C9.25 2.33 17.5 2.66 26 3 C26 3.33 26 3.66 26 4 C15.77 4 5.54 4 -5 4 C-4.67 3.34 -4.34 2.68 -4 2 C-2.68 2 -1.36 2 0 2 C0 1.34 0 0.68 0 0 Z " fill="#702FEB" transform="translate(549,748)"/>
<path d="M0 0 C0.66 0 1.32 0 2 0 C2 0.66 2 1.32 2 2 C2.66 2.33 3.32 2.66 4 3 C1.375 7.875 1.375 7.875 -2 9 C-3 6 -3 6 -1.562 2.812 C-1.047 1.884 -0.531 0.956 0 0 Z M-5 3 C-4.01 3.495 -4.01 3.495 -3 4 C-3 4.66 -3 5.32 -3 6 C-3.66 6 -4.32 6 -5 6 C-5 5.01 -5 4.02 -5 3 Z " fill="#1F67F8" transform="translate(318,175)"/>
<path d="M0 0 C4 1 4 1 4 1 Z M5 0 C6.65 0 8.3 0 10 0 C10 0.66 10 1.32 10 2 C10.66 2.33 11.32 2.66 12 3 C8.947 3.981 7.053 3.981 4 3 C4.33 2.01 4.66 1.02 5 0 Z " fill="#2263F8" transform="translate(311,167)"/>
<path d="M0 0 C3.63 0 7.26 0 11 0 C10.67 0.66 10.34 1.32 10 2 C8.68 2 7.36 2 6 2 C6.33 2.99 6.66 3.98 7 5 C3.631 3.877 2.468 2.468 0 0 Z M2 4 C2.99 4.495 2.99 4.495 4 5 C3.01 5.495 3.01 5.495 2 6 C2 5.34 2 4.68 2 4 Z " fill="#5140F5" transform="translate(672,578)"/>
<path d="M0 0 C1.65 0 3.3 0 5 0 C3.688 2.5 3.688 2.5 2 5 C1.01 5 0.02 5 -1 5 C-0.67 3.35 -0.34 1.7 0 0 Z " fill="#2363F8" transform="translate(329,216)"/>
<path d="M0 0 C0.99 0 1.98 0 3 0 C2.67 0.66 2.34 1.32 2 2 C1.34 1.34 0.68 0.68 0 0 Z M3 2 C4.32 2.33 5.64 2.66 7 3 C6.67 3.99 6.34 4.98 6 6 C5.34 6 4.68 6 4 6 C3.67 4.68 3.34 3.36 3 2 Z " fill="#503BF3" transform="translate(162,375)"/>
<path d="M0 0 C0.66 0.33 1.32 0.66 2 1 C-0.31 3.64 -2.62 6.28 -5 9 C-5 4.61 -2.872 3.231 0 0 Z " fill="#2133A4" transform="translate(222,244)"/>
<path d="M0 0 C0.33 0.66 0.66 1.32 1 2 C1.99 2.33 2.98 2.66 4 3 C3 4 3 4 1.152 4.098 C-0.898 4.065 -2.949 4.033 -5 4 C-4.67 3.34 -4.34 2.68 -4 2 C-2.68 2 -1.36 2 0 2 C0 1.34 0 0.68 0 0 Z " fill="#6A2DE3" transform="translate(549,748)"/>
<path d="M0 0 C0.99 0.495 0.99 0.495 2 1 C1.01 1.495 1.01 1.495 0 2 C0 1.34 0 0.68 0 0 Z M3 0 C3.66 0.33 4.32 0.66 5 1 C5 2.32 5 3.64 5 5 C3.68 5 2.36 5 1 5 C1 4.01 1 3.02 1 2 C1.66 2 2.32 2 3 2 C3 1.34 3 0.68 3 0 Z " fill="#4543F5" transform="translate(744,714)"/>
<path d="M0 0 C0 0.99 0 1.98 0 3 C-0.66 3.66 -1.32 4.32 -2 5 C-2 3.68 -2 2.36 -2 1 C-1.34 0.67 -0.68 0.34 0 0 Z " fill="#513BF3" transform="translate(493,480)"/>
<path d="M0 0 C0.33 0 0.66 0 1 0 C1.222 1.456 1.427 2.915 1.625 4.375 C1.741 5.187 1.857 5.999 1.977 6.836 C1.984 7.55 1.992 8.264 2 9 C1.34 9.66 0.68 10.32 0 11 C-1.374 7.182 -0.68 3.927 0 0 Z " fill="#842CEA" transform="translate(151,595)"/>
<path d="M0 0 C1.98 0.99 1.98 0.99 4 2 C4 2.99 4 3.98 4 5 C3.01 5.33 2.02 5.66 1 6 C0.67 4.02 0.34 2.04 0 0 Z M-1 1 C-0.01 1.495 -0.01 1.495 1 2 C0.67 2.66 0.34 3.32 0 4 C-0.33 3.01 -0.66 2.02 -1 1 Z " fill="#4543F5" transform="translate(482,458)"/>
<path d="M0 0 C1.65 0 3.3 0 5 0 C4.01 1.485 4.01 1.485 3 3 C1.68 3 0.36 3 -1 3 C-0.67 2.01 -0.34 1.02 0 0 Z " fill="#4E3DF3" transform="translate(520,518)"/>
<path d="M0 0 C1.65 0.33 3.3 0.66 5 1 C5 1.66 5 2.32 5 3 C3.35 3 1.7 3 0 3 C0 2.01 0 1.02 0 0 Z " fill="#4E3CF3" transform="translate(690,640)"/>
<path d="M0 0 C0.66 0.66 1.32 1.32 2 2 C1.01 2.33 0.02 2.66 -1 3 C-0.67 2.01 -0.34 1.02 0 0 Z M2 2 C3.485 2.99 3.485 2.99 5 4 C4.01 4 3.02 4 2 4 C2 3.34 2 2.68 2 2 Z " fill="#4E3CF3" transform="translate(504,502)"/>
<path d="M0 0 C1.98 0 3.96 0 6 0 C4.515 1.485 4.515 1.485 3 3 C2.01 2.67 1.02 2.34 0 2 C0 1.34 0 0.68 0 0 Z " fill="#513BF3" transform="translate(521,452)"/>
<path d="M0 0 C2.475 0.99 2.475 0.99 5 2 C4.01 2.495 4.01 2.495 3 3 C0.875 2.062 0.875 2.062 -1 1 C-0.67 0.67 -0.34 0.34 0 0 Z M4 0 C4.66 0 5.32 0 6 0 C5.67 0.66 5.34 1.32 5 2 C4.67 1.34 4.34 0.68 4 0 Z " fill="#2D59F7" transform="translate(913,448)"/>
<path d="M0 0 C0.99 0.33 1.98 0.66 3 1 C1.02 1.99 1.02 1.99 -1 3 C-0.67 2.01 -0.34 1.02 0 0 Z " fill="#275EF8" transform="translate(318,180)"/>
<path d="M0 0 C-0.33 0.99 -0.66 1.98 -1 3 C-1.99 2.34 -2.98 1.68 -4 1 C-2 0 -2 0 0 0 Z " fill="#4743E8" transform="translate(738,680)"/>
<path d="M0 0 C0.66 0.66 1.32 1.32 2 2 C0.35 2 -1.3 2 -3 2 C-2.01 1.34 -1.02 0.68 0 0 Z " fill="#2266F8" transform="translate(798,448)"/>
<path d="M0 0 C0.66 0.66 1.32 1.32 2 2 C1.01 2 0.02 2 -1 2 C-0.67 1.34 -0.34 0.68 0 0 Z " fill="#842CEA" transform="translate(346,801)"/>
<path d="M0 0 C1.65 0 3.3 0 5 0 C5 0.33 5 0.66 5 1 C3.35 1 1.7 1 0 1 C0 0.67 0 0.34 0 0 Z " fill="#1A70F9" transform="translate(786,449)"/>
<path d="M0 0 C0.66 0.66 1.32 1.32 2 2 C1.34 2 0.68 2 0 2 C0 1.34 0 0.68 0 0 Z M2 2 C4 3 4 3 4 3 Z " fill="#2069F8" transform="translate(850,323)"/>
<path d="M0 0 C2 1 2 1 2 1 Z " fill="#424CF8" transform="translate(805,571)"/>
<path d="M0 0 C4 1 4 1 4 1 Z " fill="#0F7FFA" transform="translate(885,449)"/>
<path d="M0 0 C4 1 4 1 4 1 Z " fill="#3B4AF7" transform="translate(642,449)"/>
<path d="M0 0 C4 1 4 1 4 1 Z " fill="#1D6CF9" transform="translate(693,168)"/>
<path d="M0 0 C3 1 3 1 3 1 Z " fill="#6B36EE" transform="translate(253,812)"/>
<path d="M0 0 C0.66 0.66 1.32 1.32 2 2 C1.34 2 0.68 2 0 2 C0 1.34 0 0.68 0 0 Z " fill="#842CEA" transform="translate(186,781)"/>
<path d="M0 0 C0.66 0 1.32 0 2 0 C1.67 0.66 1.34 1.32 1 2 C0.67 1.34 0.34 0.68 0 0 Z " fill="#842CEA" transform="translate(170,765)"/>
<path d="M0 0 C0.66 0 1.32 0 2 0 C1.67 0.66 1.34 1.32 1 2 C0.67 1.34 0.34 0.68 0 0 Z " fill="#842CEA" transform="translate(153,737)"/>
<path d="" fill="#842CEA" transform="translate(0,0)"/>
<path d="" fill="#5853FE" transform="translate(0,0)"/>
<path d="M0 0 C3 1 3 1 3 1 Z " fill="#3B4AF7" transform="translate(693,652)"/>
<path d="" fill="#2770FB" transform="translate(0,0)"/>
<path d="M0 0 C3 1 3 1 3 1 Z " fill="#1477F9" transform="translate(901,449)"/>
<path d="M0 0 C3 1 3 1 3 1 Z " fill="#1D6DF9" transform="translate(694,449)"/>
<path d="M0 0 C3 1 3 1 3 1 Z " fill="#444DF9" transform="translate(626,449)"/>
<path d="M0 0 C3 1 3 1 3 1 Z " fill="#444DF9" transform="translate(418,449)"/>
<path d="M0 0 C3 1 3 1 3 1 Z " fill="#1477F9" transform="translate(803,398)"/>
<path d="M0 0 C3 1 3 1 3 1 Z " fill="#2C5BF8" transform="translate(659,398)"/>
<path d="M0 0 C3 1 3 1 3 1 Z " fill="#4E50FB" transform="translate(557,398)"/>
<path d="M0 0 C3 1 3 1 3 1 Z " fill="#4E50FB" transform="translate(545,398)"/>
<path d="M0 0 C3 1 3 1 3 1 Z " fill="#1477F9" transform="translate(843,397)"/>
<path d="" fill="#2266F8" transform="translate(0,0)"/>
<path d="M0 0 C2 1 2 1 2 1 Z " fill="#494EFA" transform="translate(694,807)"/>
<path d="" fill="#842CEA" transform="translate(0,0)"/>
<path d="" fill="#842CEA" transform="translate(0,0)"/>
<path d="" fill="#5853FE" transform="translate(0,0)"/>
<path d="" fill="#3B4AF7" transform="translate(0,0)"/>
<path d="M0 0 C2 1 2 1 2 1 Z " fill="#3B4AF7" transform="translate(542,524)"/>
<path d="" fill="#3B4AF7" transform="translate(0,0)"/>
<path d="M0 0 C2 1 2 1 2 1 Z " fill="#0F7FFA" transform="translate(874,449)"/>
<path d="M0 0 C2 1 2 1 2 1 Z " fill="#0F7FFA" transform="translate(845,449)"/>
<path d="M0 0 C2 1 2 1 2 1 Z " fill="#0F7FFA" transform="translate(822,449)"/>
<path d="M0 0 C2 1 2 1 2 1 Z " fill="#3B4AF7" transform="translate(771,449)"/>
<path d="M0 0 C2 1 2 1 2 1 Z " fill="#3B4AF7" transform="translate(739,449)"/>
<path d="M0 0 C2 1 2 1 2 1 Z " fill="#2564F8" transform="translate(726,449)"/>
<path d="M0 0 C2 1 2 1 2 1 Z " fill="#3B4AF7" transform="translate(715,449)"/>
<path d="M0 0 C2 1 2 1 2 1 Z " fill="#2564F8" transform="translate(686,449)"/>
<path d="M0 0 C2 1 2 1 2 1 Z " fill="#494EFA" transform="translate(539,449)"/>
<path d="M0 0 C2 1 2 1 2 1 Z " fill="#3B4AF7" transform="translate(534,449)"/>
<path d="" fill="#3B4AF7" transform="translate(0,0)"/>
<path d="M0 0 C2 1 2 1 2 1 Z " fill="#3E44DE" transform="translate(560,448)"/>
<path d="M0 0 C2 1 2 1 2 1 Z " fill="#2564F8" transform="translate(683,398)"/>
<path d="M0 0 C2 1 2 1 2 1 Z " fill="#0F7FFA" transform="translate(675,398)"/>
<path d="M0 0 C2 1 2 1 2 1 Z " fill="#2564F8" transform="translate(627,398)"/>
<path d="M0 0 C2 1 2 1 2 1 Z " fill="#3B4AF7" transform="translate(533,398)"/>
<path d="" fill="#3B4AF7" transform="translate(0,0)"/>
<path d="" fill="#2564F8" transform="translate(0,0)"/>
<path d="" fill="#5853FE" transform="translate(0,0)"/>
<path d="" fill="#3B4AF7" transform="translate(0,0)"/>
<path d="M0 0 C2 1 2 1 2 1 Z " fill="#0F7FFA" transform="translate(780,248)"/>
<path d="" fill="#0F7FFA" transform="translate(0,0)"/>
<path d="" fill="#3B4AF7" transform="translate(0,0)"/>
<path d="M0 0 C2 1 2 1 2 1 Z " fill="#2C59F8" transform="translate(715,176)"/>
<path d="M0 0 C2 1 2 1 2 1 Z " fill="#3B4AF7" transform="translate(648,163)"/>
<path d="M0 0 C2 1 2 1 2 1 Z " fill="#0F7FFA" transform="translate(585,163)"/>
<path d="M0 0 C2 1 2 1 2 1 Z " fill="#3B4AF7" transform="translate(423,163)"/>
<path d="" fill="#000000" transform="translate(0,0)"/>
<path d="" fill="#3B4AF7" transform="translate(0,0)"/>
<path d="" fill="#842CEA" transform="translate(0,0)"/>
<path d="" fill="#842CEA" transform="translate(0,0)"/>
<path d="" fill="#5853FE" transform="translate(0,0)"/>
<path d="" fill="#842CEA" transform="translate(0,0)"/>
<path d="" fill="#702FEB" transform="translate(0,0)"/>
<path d="" fill="#842CEA" transform="translate(0,0)"/>
<path d="" fill="#842CEA" transform="translate(0,0)"/>
<path d="" fill="#842CEA" transform="translate(0,0)"/>
<path d="" fill="#3B4AF7" transform="translate(0,0)"/>
<path d="" fill="#842CEA" transform="translate(0,0)"/>
<path d="" fill="#842CEA" transform="translate(0,0)"/>
<path d="" fill="#3B4AF7" transform="translate(0,0)"/>
<path d="" fill="#3B4AF7" transform="translate(0,0)"/>
<path d="" fill="#842CEA" transform="translate(0,0)"/>
<path d="" fill="#842CEA" transform="translate(0,0)"/>
<path d="" fill="#842CEA" transform="translate(0,0)"/>
<path d="" fill="#842CEA" transform="translate(0,0)"/>
<path d="" fill="#3B4AF7" transform="translate(0,0)"/>
<path d="" fill="#842CEA" transform="translate(0,0)"/>
<path d="" fill="#5853FE" transform="translate(0,0)"/>
<path d="" fill="#5853FE" transform="translate(0,0)"/>
<path d="" fill="#842CEA" transform="translate(0,0)"/>
<path d="" fill="#842CEA" transform="translate(0,0)"/>
<path d="" fill="#842CEA" transform="translate(0,0)"/>
<path d="" fill="#842CEA" transform="translate(0,0)"/>
<path d="" fill="#842CEA" transform="translate(0,0)"/>
<path d="" fill="#842CEA" transform="translate(0,0)"/>
<path d="" fill="#842CEA" transform="translate(0,0)"/>
<path d="" fill="#3B4AF7" transform="translate(0,0)"/>
<path d="" fill="#5853FE" transform="translate(0,0)"/>
<path d="" fill="#5853FE" transform="translate(0,0)"/>
<path d="" fill="#842CEA" transform="translate(0,0)"/>
<path d="" fill="#3B4AF7" transform="translate(0,0)"/>
<path d="" fill="#3B4AF7" transform="translate(0,0)"/>
<path d="" fill="#3B4AF7" transform="translate(0,0)"/>
<path d="" fill="#842CEA" transform="translate(0,0)"/>
<path d="" fill="#3B4AF7" transform="translate(0,0)"/>
<path d="" fill="#3B4AF7" transform="translate(0,0)"/>
<path d="" fill="#5853FE" transform="translate(0,0)"/>
<path d="" fill="#3B4AF7" transform="translate(0,0)"/>
<path d="" fill="#3B4AF7" transform="translate(0,0)"/>
<path d="" fill="#3B4AF7" transform="translate(0,0)"/>
<path d="" fill="#3B4AF7" transform="translate(0,0)"/>
<path d="" fill="#3B4AF7" transform="translate(0,0)"/>
<path d="" fill="#842CEA" transform="translate(0,0)"/>
<path d="" fill="#842CEA" transform="translate(0,0)"/>
<path d="" fill="#842CEA" transform="translate(0,0)"/>
<path d="" fill="#3745C8" transform="translate(0,0)"/>
<path d="" fill="#3B4AF7" transform="translate(0,0)"/>
<path d="" fill="#3B4AF7" transform="translate(0,0)"/>
<path d="" fill="#0F7FFA" transform="translate(0,0)"/>
<path d="" fill="#3B4AF7" transform="translate(0,0)"/>
<path d="" fill="#3B4AF7" transform="translate(0,0)"/>
<path d="" fill="#842CEA" transform="translate(0,0)"/>
<path d="" fill="#842CEA" transform="translate(0,0)"/>
<path d="" fill="#3B4AF7" transform="translate(0,0)"/>
<path d="" fill="#3B4AF7" transform="translate(0,0)"/>
<path d="" fill="#3B4AF7" transform="translate(0,0)"/>
<path d="" fill="#3B4AF7" transform="translate(0,0)"/>
<path d="" fill="#3B4AF7" transform="translate(0,0)"/>
<path d="" fill="#5853FE" transform="translate(0,0)"/>
<path d="" fill="#842CEA" transform="translate(0,0)"/>
<path d="" fill="#3B4AF7" transform="translate(0,0)"/>
<path d="" fill="#3B4AF7" transform="translate(0,0)"/>
<path d="" fill="#0F7FFA" transform="translate(0,0)"/>
<path d="" fill="#4543F5" transform="translate(0,0)"/>
<path d="" fill="#3B4AF7" transform="translate(0,0)"/>
<path d="" fill="#5853FE" transform="translate(0,0)"/>
<path d="" fill="#3B4AF7" transform="translate(0,0)"/>
<path d="" fill="#3B4AF7" transform="translate(0,0)"/>
<path d="" fill="#3B4AF7" transform="translate(0,0)"/>
<path d="" fill="#3B4AF7" transform="translate(0,0)"/>
<path d="" fill="#5853FE" transform="translate(0,0)"/>
<path d="" fill="#3B4AF7" transform="translate(0,0)"/>
<path d="" fill="#3B4AF7" transform="translate(0,0)"/>
<path d="" fill="#3B4AF7" transform="translate(0,0)"/>
<path d="" fill="#3B4AF7" transform="translate(0,0)"/>
<path d="" fill="#3B4AF7" transform="translate(0,0)"/>
<path d="" fill="#842CEA" transform="translate(0,0)"/>
<path d="" fill="#3B4AF7" transform="translate(0,0)"/>
<path d="" fill="#3B4AF7" transform="translate(0,0)"/>
<path d="" fill="#3B4AF7" transform="translate(0,0)"/>
<path d="" fill="#842CEA" transform="translate(0,0)"/>
<path d="" fill="#3B4AF7" transform="translate(0,0)"/>
<path d="" fill="#3B4AF7" transform="translate(0,0)"/>
<path d="" fill="#3B4AF7" transform="translate(0,0)"/>
<path d="" fill="#3B4AF7" transform="translate(0,0)"/>
<path d="" fill="#3B4AF7" transform="translate(0,0)"/>
<path d="" fill="#3B4AF7" transform="translate(0,0)"/>
<path d="" fill="#5853FE" transform="translate(0,0)"/>
<path d="" fill="#0F7FFA" transform="translate(0,0)"/>
<path d="" fill="#0F7FFA" transform="translate(0,0)"/>
<path d="" fill="#0F7FFA" transform="translate(0,0)"/>
<path d="" fill="#0F7FFA" transform="translate(0,0)"/>
<path d="" fill="#0F7FFA" transform="translate(0,0)"/>
<path d="" fill="#0F7FFA" transform="translate(0,0)"/>
<path d="" fill="#0F7FFA" transform="translate(0,0)"/>
<path d="" fill="#0F7FFA" transform="translate(0,0)"/>
<path d="" fill="#0F7FFA" transform="translate(0,0)"/>
<path d="" fill="#0F7FFA" transform="translate(0,0)"/>
<path d="" fill="#0F7FFA" transform="translate(0,0)"/>
<path d="" fill="#3B4AF7" transform="translate(0,0)"/>
<path d="" fill="#1E69F9" transform="translate(0,0)"/>
<path d="" fill="#0F7FFA" transform="translate(0,0)"/>
<path d="" fill="#3B4AF7" transform="translate(0,0)"/>
<path d="" fill="#3B4AF7" transform="translate(0,0)"/>
<path d="" fill="#5853FE" transform="translate(0,0)"/>
<path d="" fill="#5853FE" transform="translate(0,0)"/>
<path d="" fill="#3B4AF7" transform="translate(0,0)"/>
<path d="" fill="#3B4AF7" transform="translate(0,0)"/>
<path d="" fill="#0F7FFA" transform="translate(0,0)"/>
<path d="" fill="#3B4AF7" transform="translate(0,0)"/>
<path d="" fill="#5853FE" transform="translate(0,0)"/>
<path d="" fill="#3B4AF7" transform="translate(0,0)"/>
<path d="" fill="#3B4AF7" transform="translate(0,0)"/>
<path d="" fill="#3B4AF7" transform="translate(0,0)"/>
<path d="" fill="#3B4AF7" transform="translate(0,0)"/>
<path d="" fill="#0F7FFA" transform="translate(0,0)"/>
<path d="" fill="#5853FE" transform="translate(0,0)"/>
<path d="" fill="#3B4AF7" transform="translate(0,0)"/>
<path d="" fill="#3B4AF7" transform="translate(0,0)"/>
<path d="" fill="#5853FE" transform="translate(0,0)"/>
<path d="" fill="#3B4AF7" transform="translate(0,0)"/>
<path d="" fill="#3B4AF7" transform="translate(0,0)"/>
<path d="" fill="#5853FE" transform="translate(0,0)"/>
<path d="" fill="#5853FE" transform="translate(0,0)"/>
<path d="" fill="#3B4AF7" transform="translate(0,0)"/>
<path d="" fill="#5853FE" transform="translate(0,0)"/>
<path d="" fill="#3B4AF7" transform="translate(0,0)"/>
<path d="" fill="#3B4AF7" transform="translate(0,0)"/>
<path d="" fill="#3B4AF7" transform="translate(0,0)"/>
<path d="" fill="#3B4AF7" transform="translate(0,0)"/>
<path d="" fill="#3B4AF7" transform="translate(0,0)"/>
<path d="" fill="#3B4AF7" transform="translate(0,0)"/>
<path d="" fill="#3B4AF7" transform="translate(0,0)"/>
<path d="" fill="#3B4AF7" transform="translate(0,0)"/>
<path d="" fill="#5853FE" transform="translate(0,0)"/>
<path d="" fill="#3B4AF7" transform="translate(0,0)"/>
<path d="" fill="#3B4AF7" transform="translate(0,0)"/>
<path d="" fill="#3B4AF7" transform="translate(0,0)"/>
<path d="" fill="#3B4AF7" transform="translate(0,0)"/>
<path d="" fill="#1E69F9" transform="translate(0,0)"/>
<path d="" fill="#3B4AF7" transform="translate(0,0)"/>
<path d="" fill="#3B4AF7" transform="translate(0,0)"/>
<path d="" fill="#3B4AF7" transform="translate(0,0)"/>
<path d="" fill="#3B4AF7" transform="translate(0,0)"/>
<path d="" fill="#3B4AF7" transform="translate(0,0)"/>
<path d="" fill="#3B4AF7" transform="translate(0,0)"/>
<path d="" fill="#3B4AF7" transform="translate(0,0)"/>
<path d="" fill="#3B4AF7" transform="translate(0,0)"/>
<path d="" fill="#3B4AF7" transform="translate(0,0)"/>
<path d="" fill="#3B4AF7" transform="translate(0,0)"/>
<path d="" fill="#0F7FFA" transform="translate(0,0)"/>
<path d="" fill="#0F7FFA" transform="translate(0,0)"/>
<path d="" fill="#5853FE" transform="translate(0,0)"/>
<path d="" fill="#5853FE" transform="translate(0,0)"/>
<path d="" fill="#3B4AF7" transform="translate(0,0)"/>
<path d="" fill="#3B4AF7" transform="translate(0,0)"/>
<path d="" fill="#3B4AF7" transform="translate(0,0)"/>
<path d="" fill="#3B4AF7" transform="translate(0,0)"/>
<path d="" fill="#3B4AF7" transform="translate(0,0)"/>
<path d="" fill="#3B4AF7" transform="translate(0,0)"/>
<path d="" fill="#1E69F9" transform="translate(0,0)"/>
<path d="" fill="#3B4AF7" transform="translate(0,0)"/>
<path d="" fill="#5853FE" transform="translate(0,0)"/>
<path d="" fill="#3B4AF7" transform="translate(0,0)"/>
<path d="" fill="#3B4AF7" transform="translate(0,0)"/>
<path d="" fill="#3B4AF7" transform="translate(0,0)"/>
<path d="" fill="#3B4AF7" transform="translate(0,0)"/>
<path d="" fill="#3B4AF7" transform="translate(0,0)"/>
<path d="" fill="#3B4AF7" transform="translate(0,0)"/>
<path d="" fill="#3B4AF7" transform="translate(0,0)"/>
<path d="" fill="#5853FE" transform="translate(0,0)"/>
<path d="" fill="#3B4AF7" transform="translate(0,0)"/>
<path d="" fill="#3B4AF7" transform="translate(0,0)"/>
<path d="" fill="#0F7FFA" transform="translate(0,0)"/>
<path d="" fill="#3B4AF7" transform="translate(0,0)"/>
<path d="" fill="#3B4AF7" transform="translate(0,0)"/>
<path d="" fill="#3B4AF7" transform="translate(0,0)"/>
<path d="" fill="#0F7FFA" transform="translate(0,0)"/>
<path d="" fill="#0F7FFA" transform="translate(0,0)"/>
<path d="" fill="#3B4AF7" transform="translate(0,0)"/>
<path d="" fill="#5853FE" transform="translate(0,0)"/>
<path d="" fill="#3B4AF7" transform="translate(0,0)"/>
<path d="" fill="#0F7FFA" transform="translate(0,0)"/>
<path d="" fill="#3B4AF7" transform="translate(0,0)"/>
<path d="" fill="#0F7FFA" transform="translate(0,0)"/>
<path d="" fill="#3B4AF7" transform="translate(0,0)"/>
<path d="" fill="#0F7FFA" transform="translate(0,0)"/>
<path d="" fill="#3B4AF7" transform="translate(0,0)"/>
<path d="" fill="#3B4AF7" transform="translate(0,0)"/>
<path d="" fill="#0F7FFA" transform="translate(0,0)"/>
<path d="" fill="#3B4AF7" transform="translate(0,0)"/>
<path d="" fill="#1E69F9" transform="translate(0,0)"/>
<path d="" fill="#3B4AF7" transform="translate(0,0)"/>
<path d="" fill="#0F7FFA" transform="translate(0,0)"/>
<path d="" fill="#3B4AF7" transform="translate(0,0)"/>
<path d="" fill="#0F7FFA" transform="translate(0,0)"/>
<path d="" fill="#3B4AF7" transform="translate(0,0)"/>
<path d="" fill="#3B4AF7" transform="translate(0,0)"/>
<path d="" fill="#3B4AF7" transform="translate(0,0)"/>
<path d="" fill="#0F7FFA" transform="translate(0,0)"/>
<path d="" fill="#0F7FFA" transform="translate(0,0)"/>
<path d="" fill="#0F7FFA" transform="translate(0,0)"/>
<path d="" fill="#3B4AF7" transform="translate(0,0)"/>
<path d="" fill="#0F7FFA" transform="translate(0,0)"/>
<path d="" fill="#0F7FFA" transform="translate(0,0)"/>
<path d="" fill="#0F7FFA" transform="translate(0,0)"/>
<path d="" fill="#0F7FFA" transform="translate(0,0)"/>
<path d="" fill="#0F7FFA" transform="translate(0,0)"/>
<path d="" fill="#0F7FFA" transform="translate(0,0)"/>
<path d="" fill="#3B4AF7" transform="translate(0,0)"/>
<path d="" fill="#3B4AF7" transform="translate(0,0)"/>
<path d="" fill="#1E69F9" transform="translate(0,0)"/>
<path d="" fill="#1E69F9" transform="translate(0,0)"/>
<path d="" fill="#3B4AF7" transform="translate(0,0)"/>
<path d="" fill="#3B4AF7" transform="translate(0,0)"/>
<path d="" fill="#3B4AF7" transform="translate(0,0)"/>
<path d="" fill="#3B4AF7" transform="translate(0,0)"/>
<path d="" fill="#0F7FFA" transform="translate(0,0)"/>
<path d="" fill="#3B4AF7" transform="translate(0,0)"/>
<path d="" fill="#3B4AF7" transform="translate(0,0)"/>
<path d="" fill="#3B4AF7" transform="translate(0,0)"/>
<path d="" fill="#3B4AF7" transform="translate(0,0)"/>
<path d="" fill="#3B4AF7" transform="translate(0,0)"/>
<path d="" fill="#3B4AF7" transform="translate(0,0)"/>
<path d="" fill="#3B4AF7" transform="translate(0,0)"/>
<path d="" fill="#3B4AF7" transform="translate(0,0)"/>
<path d="" fill="#3B4AF7" transform="translate(0,0)"/>
</svg>